<svg width="45" height="45" viewBox="0 0 45 45" fill="none" xmlns="http://www.w3.org/2000/svg">
<g clip-path="url(#clip0)">
<path d="M14.0667 13.8719L24.6581 24.4634C24.8985 21.8555 25.3891 12.3122 20.3666 7.28971C18.661 5.58408 16.4054 4.48923 14.0667 3.79297V13.8719Z" fill="#FBD542"/>
<path d="M1.03997 4.57373C0.916027 6.44415 0.737842 12.0173 2.49909 16.8784H13.3447L1.03997 4.57373Z" fill="#FBD542"/>
<path d="M11.4299 11.2357V3.16829C7.74915 2.49538 4.29841 2.61725 2.90417 2.70961L11.4299 11.2357Z" fill="#FBD542"/>
<path d="M15.981 19.5151H3.71234C4.24346 20.4349 4.87277 21.2887 5.62019 22.0362C9.37614 25.7921 15.6596 26.465 19.681 26.465C21.0374 26.465 22.1357 26.3881 22.7939 26.3277L15.981 19.5151Z" fill="#FBD542"/>
<path d="M43.5971 10.4632C44.27 6.78247 44.1478 3.33173 44.0558 1.9375L35.5297 10.4632H43.5971Z" fill="#FBD542"/>
<path d="M29.887 12.3778L42.1917 0.0731083C40.3212 -0.0508312 34.7481 -0.229016 29.887 1.53223V12.3778Z" fill="#FBD542"/>
<path d="M32.8934 13.0996L27.335 18.658C27.4844 20.7152 27.4342 22.5321 27.3553 23.7745C31.2595 23.5576 36.2813 22.5935 39.4753 19.3996C41.1809 17.694 42.2761 15.4383 42.9723 13.0996H32.8934Z" fill="#FBD542"/>
<path d="M26.9237 15.3411L27.2502 15.0146V2.74561C26.3305 3.27638 25.4766 3.90604 24.7289 4.65345C24.1562 5.22611 23.6567 5.85817 23.2189 6.53108C24.3454 7.93321 25.2579 9.61412 25.9387 11.5484C26.3511 12.7202 26.6803 13.9894 26.9237 15.3411Z" fill="#FBD542"/>
<path d="M7.27847 35.8299H10.618C11.1893 35.8299 11.5188 36.3792 11.5188 36.9725C11.5188 37.4778 11.2332 38.0711 10.618 38.0711H7.27847V42.4869H13.496C14.0673 42.4869 14.3969 43.0802 14.3969 43.7613C14.3969 44.3546 14.1113 44.9918 13.496 44.9918H5.67446C5.0376 44.9918 4.42236 44.6842 4.42236 44.0909V29.832C4.42236 29.2388 5.0376 28.9312 5.67446 28.9312H13.496C14.1113 28.9312 14.3969 29.5684 14.3969 30.1616C14.3969 30.8424 14.0673 31.4357 13.496 31.4357H7.27847V35.8299Z" fill="#FBD542"/>
<path d="M22.1745 31.3125C20.7024 31.3125 19.8677 32.1251 19.8677 33.839V39.9687C19.8677 41.6826 20.7024 42.4956 22.2185 42.4956C24.2176 42.4956 24.3934 41.0673 24.4593 40.1445C24.5033 39.4637 25.1185 39.2439 25.8656 39.2439C26.8544 39.2439 27.3158 39.5296 27.3158 40.6498C27.3158 43.3085 25.1405 45.0001 22.0647 45.0001C19.2964 45.0001 17.0113 43.6378 17.0113 39.9687V33.839C17.0113 30.1699 19.3184 28.8076 22.0866 28.8076C25.1405 28.8076 27.3158 30.4336 27.3158 32.9821C27.3158 34.1247 26.8544 34.3883 25.8876 34.3883C25.0746 34.3883 24.4813 34.1466 24.4593 33.4874C24.4154 32.8063 24.2616 31.3125 22.1745 31.3125Z" fill="#FBD542"/>
<path d="M30.1716 39.9687V33.839C30.1716 30.1699 32.4128 28.8076 35.3128 28.8076C38.2129 28.8076 40.4757 30.1699 40.4757 33.839V39.9687C40.4757 43.6378 38.2129 45.0001 35.3128 45.0001C32.4128 45.0001 30.1716 43.6378 30.1716 39.9687ZM37.6196 33.839C37.6196 32.1032 36.7407 31.3125 35.3128 31.3125C33.8626 31.3125 33.0277 32.1032 33.0277 33.839V39.9687C33.0277 41.7045 33.8626 42.4956 35.3128 42.4956C36.7407 42.4956 37.6196 41.7045 37.6196 39.9687V33.839Z" fill="#FBD542"/>
</g>
<defs>
<clipPath id="clip0">
<rect width="45" height="45" fill="white"/>
</clipPath>
</defs>
</svg>
