<svg width="45" height="45" viewBox="0 0 45 45" fill="none" xmlns="http://www.w3.org/2000/svg">
<g clip-path="url(#clip0)">
<path d="M25.5507 31.0341H24.4397C24.2254 31.0341 24.0517 31.2078 24.0517 31.4221V32.1979C24.0517 32.4122 23.8781 32.5859 23.6638 32.5859H21.3362C21.122 32.5859 20.9483 32.4122 20.9483 32.1979V31.4221C20.9483 31.2078 20.7746 31.0341 20.5604 31.0341H19.4493C19.2987 31.0344 19.1616 30.9474 19.0975 30.8111C19.0335 30.6747 19.0542 30.5137 19.1506 30.3979L22.2021 26.7366C22.2758 26.6483 22.3849 26.5972 22.5 26.5972C22.6151 26.5972 22.7242 26.6483 22.7979 26.7366L25.8494 30.3979C25.9458 30.5137 25.9665 30.6747 25.9025 30.8111C25.8385 30.9474 25.7013 31.0344 25.5507 31.0341Z" fill="#FBD542"/>
<path d="M11.5852 27.9311H10.4741C10.2599 27.9311 10.0862 28.1048 10.0862 28.3191V32.1984C10.0862 32.4126 9.91252 32.5863 9.69828 32.5863H7.37069C7.15644 32.5863 6.98276 32.4126 6.98276 32.1984V28.3191C6.98276 28.1048 6.80908 27.9311 6.59483 27.9311H5.4838C5.33318 27.9314 5.19603 27.8444 5.13201 27.7081C5.068 27.5717 5.08869 27.4107 5.18509 27.2949L8.23655 23.6336C8.31026 23.5452 8.4194 23.4941 8.53448 23.4941C8.64957 23.4941 8.75871 23.5452 8.83241 23.6336L11.8839 27.2949C11.9803 27.4107 12.001 27.5717 11.937 27.7081C11.8729 27.8444 11.7358 27.9314 11.5852 27.9311Z" fill="#FBD542"/>
<path d="M39.5162 27.9311H38.4052C38.1909 27.9311 38.0172 28.1048 38.0172 28.3191V32.1984C38.0172 32.4126 37.8435 32.5863 37.6293 32.5863H35.3017C35.0875 32.5863 34.9138 32.4126 34.9138 32.1984V28.3191C34.9138 28.1048 34.7401 27.9311 34.5258 27.9311H33.4148C33.2642 27.9314 33.127 27.8444 33.063 27.7081C32.999 27.5717 33.0197 27.4107 33.1161 27.2949L36.1676 23.6336C36.2413 23.5452 36.3504 23.4941 36.4655 23.4941C36.5806 23.4941 36.6897 23.5452 36.7634 23.6336L39.8149 27.2949C39.9113 27.4107 39.932 27.5717 39.868 27.7081C39.804 27.8444 39.6668 27.9314 39.5162 27.9311Z" fill="#FBD542"/>
<path d="M19.0614 22.372C18.3232 21.3817 18.0308 20.1287 18.2545 18.914C18.937 19.4106 19.7597 19.6774 20.6038 19.6759C21.1065 19.6947 21.5301 19.304 21.5519 18.8015C21.5593 18.3836 21.5888 17.9663 21.6403 17.5516C22.3109 18.3788 23.3321 18.8416 24.3962 18.8007C25.2196 18.8023 26.0231 18.5483 26.6959 18.0737C26.9077 19.4827 26.9589 21.4821 25.92 22.7646C25.2225 23.6312 24.1029 24.0517 22.5 24.0517C21.1615 24.0289 19.9021 23.4137 19.0614 22.372ZM28.4245 21.8289C28.8395 19.8684 28.745 17.8342 28.1498 15.9207C28.0256 15.5671 27.7015 15.3225 27.3274 15.3C26.9517 15.2637 26.5889 15.4479 26.3964 15.7725C25.9772 16.4971 25.231 16.9717 24.397 17.0441C22.5403 17.0441 22.5016 14.5234 22.5008 14.4186C22.4892 13.9976 22.1849 13.6419 21.7707 13.5652C21.3526 13.4677 20.9199 13.6543 20.7039 14.0253C20.147 15.178 19.8125 16.4254 19.7178 17.7021C19.2617 17.4554 18.8787 17.0927 18.6075 16.6508C18.4199 16.3279 18.0643 16.1408 17.692 16.169C17.321 16.186 16.9948 16.4198 16.8595 16.7656C16.1663 18.4101 16.1132 20.2543 16.7105 21.9359C14.9932 20.5129 13.9893 18.4061 13.9655 16.1759C14.0437 14.4627 14.3532 12.7678 14.8857 11.1375C15.3304 9.51519 15.4464 7.82038 15.2271 6.15259C16.3563 6.61527 17.2751 7.47831 17.8076 8.57638C17.9761 8.99521 18.4139 9.2398 18.8589 9.16371C19.3008 9.1126 19.6391 8.7463 19.6549 8.30172C19.6549 6.03853 21.3253 4.5 22.2222 3.66983C23.3166 2.77173 23.93 1.41488 23.881 0C24.1476 0.197342 24.3772 0.440313 24.5591 0.717672C25.3897 2.13243 25.3655 3.89149 24.4963 5.28285C24.0735 6.06336 22.0376 10.0699 23.5172 12.2788C24.1556 13.1601 25.2089 13.6426 26.2932 13.5504C27.2457 13.5948 28.1653 13.1964 28.7845 12.4712C29.2897 11.7866 29.5719 10.9631 29.5929 10.1126C30.546 11.9913 31.04 14.0693 31.0345 16.1759C31.0164 18.3487 30.0658 20.4089 28.4245 21.8328V21.8289Z" fill="#FBD542"/>
<path d="M43.4483 41.8965H1.55172C0.694731 41.8965 0 42.5912 0 43.4482C0 44.3052 0.694731 44.9999 1.55172 44.9999H43.4483C44.3053 44.9999 45 44.3052 45 43.4482C45 42.5912 44.3053 41.8965 43.4483 41.8965Z" fill="#FBD542"/>
<path d="M43.4483 34.1382H1.55172C0.694731 34.1382 0 34.8329 0 35.6899C0 36.5469 0.694731 37.2416 1.55172 37.2416H43.4483C44.3053 37.2416 45 36.5469 45 35.6899C45 34.8329 44.3053 34.1382 43.4483 34.1382Z" fill="#FBD542"/>
<path d="M5.06638 38.0171L2.99483 41.1205H1.55172C1.40307 41.1203 1.25482 41.1359 1.10948 41.1671L3.21207 38.0171H5.06638Z" fill="#FBD542"/>
<path d="M8.94568 38.0171L6.87413 41.1205H5.01982L7.09137 38.0171H8.94568Z" fill="#FBD542"/>
<path d="M12.825 38.0171L10.7534 41.1205H8.89914L10.9707 38.0171H12.825Z" fill="#FBD542"/>
<path d="M16.7043 38.0171L14.6328 41.1205H12.7784L14.85 38.0171H16.7043Z" fill="#FBD542"/>
<path d="M20.5836 38.0171L18.5121 41.1205H16.6577L18.7293 38.0171H20.5836Z" fill="#FBD542"/>
<path d="M24.4629 38.0171L22.3914 41.1205H20.5371L22.6086 38.0171H24.4629Z" fill="#FBD542"/>
<path d="M28.3422 38.0171L26.2707 41.1205H24.4164L26.4879 38.0171H28.3422Z" fill="#FBD542"/>
<path d="M32.2215 38.0171L30.15 41.1205H28.2957L30.3672 38.0171H32.2215Z" fill="#FBD542"/>
<path d="M36.1008 38.0171L34.0293 41.1205H32.175L34.2465 38.0171H36.1008Z" fill="#FBD542"/>
<path d="M39.9802 38.0171L37.9086 41.1205H36.0543L38.1259 38.0171H39.9802Z" fill="#FBD542"/>
<path d="M43.8905 37.9707L41.7879 41.1207H39.9336L42.0052 38.0173H43.4483C43.5969 38.0175 43.7452 38.0019 43.8905 37.9707Z" fill="#FBD542"/>
</g>
<defs>
<clipPath id="clip0">
<rect width="45" height="45" fill="white"/>
</clipPath>
</defs>
</svg>
