<svg width="40" height="28" viewBox="0 0 40 28" fill="none" xmlns="http://www.w3.org/2000/svg">
<path d="M38.3 2.65C37.215 0.72 36.0375 0.365 33.64 0.23C31.245 0.0675 25.2225 0 20.005 0C14.7775 0 8.7525 0.0675002 6.36 0.2275C3.9675 0.365 2.7875 0.7175 1.6925 2.65C0.575 4.5775 0 7.8975 0 13.7425C0 13.7475 0 13.75 0 13.75C0 13.755 0 13.7575 0 13.7575V13.7625C0 19.5825 0.575 22.9275 1.6925 24.835C2.7875 26.765 3.965 27.115 6.3575 27.2775C8.7525 27.4175 14.7775 27.5 20.005 27.5C25.2225 27.5 31.245 27.4175 33.6425 27.28C36.04 27.1175 37.2175 26.7675 38.3025 24.8375C39.43 22.93 40 19.585 40 13.765C40 13.765 40 13.7575 40 13.7525C40 13.7525 40 13.7475 40 13.745C40 7.8975 39.43 4.5775 38.3 2.65Z" fill="#F44336"/>
<path d="M15 21.25V6.25L27.5 13.75L15 21.25Z" fill="#FAFAFA"/>
</svg>
