<svg width="30" height="30" viewBox="0 0 30 30" fill="none" xmlns="http://www.w3.org/2000/svg">
<g clip-path="url(#clip0)">
<path d="M19.5233 6.74012C17.8297 3.28194 14.2869 0.995605 10.313 0.995605C4.62679 0.995605 0.000741455 5.5954 0.000741455 11.2493C0.000741455 12.7858 0.330617 14.2585 0.981695 15.6316L0.0177918 20.4517C-0.104901 21.0653 0.436376 21.6076 1.05007 21.4862L5.92959 20.5215C6.58658 20.8332 7.26625 21.0702 7.96462 21.2335C6.3992 13.8191 12.0191 6.85953 19.5233 6.74012Z" fill="#FBD542"/>
<path d="M29.0188 23.1317C29.1872 22.7766 29.3336 22.4147 29.4589 22.047H29.4267C31.6209 15.6067 27.0066 8.83783 20.1945 8.50825C20.1944 8.5079 20.1943 8.50755 20.1942 8.5072C14.3329 8.23709 9.46313 12.9301 9.46313 18.7494C9.46313 24.3985 14.0545 28.9947 19.7017 29.0029C21.2335 29.0008 22.7017 28.6711 24.0709 28.0216C29.4149 29.0782 28.9981 29.003 29.1209 29.003C29.6763 29.003 30.0912 28.4941 29.9827 27.9518L29.0188 23.1317Z" fill="#FBD542"/>
</g>
<defs>
<clipPath id="clip0">
<rect width="30" height="30" fill="white"/>
</clipPath>
</defs>
</svg>
