<svg width="30" height="30" viewBox="0 0 30 30" fill="none" xmlns="http://www.w3.org/2000/svg">
<path d="M29.7357 5.95996L20.6374 14.9997L29.7357 24.0395C29.9002 23.6958 30 23.3157 30 22.9099V7.08959C30 6.68371 29.9002 6.30373 29.7357 5.95996Z" fill="#FBD542"/>
<path d="M27.3633 4.45312H2.63674C2.23086 4.45312 1.85088 4.55291 1.50711 4.71738L13.1358 16.2875C14.164 17.3157 15.836 17.3157 16.8642 16.2875L28.4929 4.71738C28.1492 4.55291 27.7692 4.45312 27.3633 4.45312Z" fill="#FBD542"/>
<path d="M0.264258 5.95996C0.0997852 6.30373 0 6.68371 0 7.08959V22.9099C0 23.3158 0.0997852 23.6958 0.264258 24.0395L9.36264 14.9997L0.264258 5.95996Z" fill="#FBD542"/>
<path d="M19.3946 16.2427L18.1071 17.5302C16.3938 19.2434 13.6061 19.2434 11.8929 17.5302L10.6055 16.2427L1.50711 25.2825C1.85088 25.4469 2.23086 25.5467 2.63674 25.5467H27.3633C27.7692 25.5467 28.1492 25.4469 28.4929 25.2825L19.3946 16.2427Z" fill="#FBD542"/>
</svg>
