<svg width="47" height="47" viewBox="0 0 47 47" fill="none" xmlns="http://www.w3.org/2000/svg">
<g filter="url(#filter0_d)">
<path d="M44.3491 13.2454L44.34 13.2362C43.9653 12.8981 43.3895 12.8981 43.033 13.2545C42.6766 13.611 42.6766 14.1868 43.033 14.5432C44.5319 16.0421 44.5319 18.4732 43.033 19.9721C41.5341 21.471 39.103 21.471 37.6041 19.9721C37.5858 19.9538 37.5767 19.9447 37.5584 19.9356C36.1875 18.0163 34.4327 16.4077 32.4128 15.2104C34.5058 10.275 32.1934 4.58105 27.2581 2.49722C22.3227 0.41339 16.6287 2.71657 14.5449 7.65195C14.1245 8.65731 13.8686 9.72664 13.7954 10.8143C12.8266 10.5401 12.0498 10.4121 11.4466 10.4304C10.4778 10.4395 9.76487 11.0427 9.6552 11.9293C9.59122 12.3223 9.63692 12.8981 9.84713 14.7717L10.0391 16.5631C8.28426 17.9888 6.90418 19.6522 5.90796 21.5167L3.25748 22.0377C1.94138 22.3027 1 23.4635 1 24.7978V30.6746C1 32.0181 1.94138 33.1697 3.25748 33.4348L5.9171 33.9649C6.43806 34.9885 7.07783 35.9481 7.82728 36.8256C6.8402 39.275 7.57137 42.0808 9.61864 43.7534C10.8342 44.7404 12.3605 45.2797 13.9234 45.2705C15.7056 45.2705 17.4239 44.5942 18.7308 43.3786L19.3706 42.7754C21.7286 43.1319 24.1415 43.0496 26.4721 42.5561L27.3769 43.4243C28.629 44.6033 30.2924 45.2614 32.0107 45.2431H32.2026C32.2117 45.2431 32.2209 45.2431 32.23 45.2431C34.0214 45.1974 35.7213 44.448 36.9643 43.1502C38.8836 41.1212 39.1121 38.0685 37.595 35.674C39.3132 33.2794 40.218 30.5375 40.218 27.7042V27.037C40.218 27.0188 40.218 27.0005 40.218 26.9822C40.1358 25.6204 39.7793 24.2129 39.1578 22.7871C41.0314 23.1893 42.9873 22.6135 44.34 21.2517C46.5518 19.0399 46.5518 15.4572 44.3491 13.2454ZM23.4834 3.54827C27.8247 3.53913 31.3526 7.04874 31.3617 11.39C31.3709 14.0131 30.0639 16.4717 27.8796 17.934C27.8064 17.9888 27.7333 18.0985 27.6785 18.0985H19.3249C19.2883 18.0985 19.2426 18.0437 19.1969 18.0071C17.1223 16.6636 15.8061 14.4244 15.6234 11.9658C15.6051 11.7556 15.6051 11.5728 15.6051 11.4083C15.6142 7.07616 19.133 3.55741 23.4834 3.54827ZM35.8219 34.9976C35.6665 35.1804 35.4289 35.6008 35.7122 36.1675C35.7396 36.2223 35.767 36.268 35.8036 36.3137C37.1288 38.0411 37.0557 40.3809 35.6299 41.8889C34.7251 42.8303 33.5004 43.4152 32.1752 43.4152H32.0015C30.7494 43.4243 29.543 42.9582 28.629 42.0991L27.4409 40.9658C27.2306 40.7647 26.9473 40.655 26.664 40.6642C26.5909 40.6642 26.5269 40.6733 26.4538 40.6916C24.1049 41.2491 21.6738 41.3222 19.2883 40.9201C19.2335 40.9109 19.1878 40.9109 19.133 40.9109C18.8405 40.9018 18.5663 41.0115 18.3561 41.2126L17.4604 42.0625C16.5465 42.9125 15.3674 43.3969 14.1245 43.4518C12.9089 43.5157 11.7025 43.1227 10.752 42.3641C9.23478 41.1212 8.76866 38.9916 9.63692 37.2277C9.77401 36.9992 9.81057 36.7159 9.73746 36.4508C9.7009 36.2863 9.62778 36.1401 9.51811 36.0213C8.65898 35.0799 7.93696 34.0106 7.37944 32.859C7.33374 32.7676 7.2789 32.6853 7.20579 32.6122C7.03214 32.4203 6.80364 32.3014 6.55688 32.2558L3.61393 31.6617C3.15695 31.5703 2.82792 31.159 2.82792 30.6929V24.7978C2.81878 24.3317 3.14781 23.9204 3.61393 23.829L6.56602 23.235C6.81278 23.1893 7.04127 23.0705 7.21493 22.8785C7.28804 22.8054 7.34288 22.7323 7.38858 22.6409C8.32082 20.7764 9.71004 19.113 11.5105 17.7238C11.538 17.6964 11.5654 17.6781 11.5928 17.6507C11.803 17.4405 11.9127 17.1571 11.9035 16.8647C11.9035 16.8281 11.9035 16.8007 11.8944 16.7641L11.6568 14.5706C11.5745 13.8669 11.4374 12.5965 11.4557 12.2492C11.4648 12.2492 11.4831 12.2492 11.4923 12.2492C11.8578 12.24 12.5616 12.304 13.8594 12.7244C14.1336 14.7534 15.0476 16.6362 16.4642 18.1077H15.5959C15.0933 18.1077 14.682 18.5189 14.682 19.0216C14.682 19.5243 15.0933 19.9356 15.5959 19.9356H31.4349C31.9375 19.9356 32.3488 19.5243 32.3488 19.0216C32.3488 18.5189 31.9375 18.1077 31.4349 18.1077H30.4843C30.8865 17.7146 31.2429 17.2759 31.5445 16.8007C33.6558 18.0802 35.3923 19.7985 36.5896 21.7726L37.2385 23.0248C37.9057 24.4048 38.2896 25.8032 38.381 27.0827V27.7134C38.381 30.3182 37.4944 32.8315 35.8219 34.9976Z" fill="#FBD542"/>
<path d="M13.6583 23.1343C12.3605 23.1343 11.3186 24.1853 11.3186 25.474C11.3186 26.7718 12.3697 27.8138 13.6583 27.8138C14.947 27.8138 15.9981 26.7627 15.9981 25.474C16.0072 24.1853 14.9562 23.1343 13.6583 23.1343ZM13.6583 25.995C13.375 25.995 13.1465 25.7665 13.1465 25.4832C13.1465 25.1998 13.375 24.9713 13.6583 24.9713C13.9417 24.9713 14.1702 25.1998 14.1702 25.4832C14.1793 25.7665 13.9508 25.995 13.6583 25.995Z" fill="#FBD542"/>
<path d="M23.4834 5.87012C20.4217 5.87012 17.9448 8.34695 17.9448 11.4087C17.954 14.4613 20.4308 16.9382 23.4834 16.9473C26.5452 16.9473 29.022 14.4705 29.022 11.4087C29.022 8.34695 26.5452 5.87012 23.4834 5.87012ZM23.4834 15.1194C21.4362 15.1194 19.7727 13.456 19.7727 11.4087C19.7727 9.36145 21.4362 7.69804 23.4834 7.69804C25.5307 7.69804 27.1941 9.36145 27.1941 11.4087C27.1941 13.456 25.5307 15.1194 23.4834 15.1194Z" fill="#FBD542"/>
</g>
<defs>
<filter id="filter0_d" x="0" y="0" width="47" height="47" filterUnits="userSpaceOnUse" color-interpolation-filters="sRGB">
<feFlood flood-opacity="0" result="BackgroundImageFix"/>
<feColorMatrix in="SourceAlpha" type="matrix" values="0 0 0 0 0 0 0 0 0 0 0 0 0 0 0 0 0 0 127 0"/>
<feOffset/>
<feGaussianBlur stdDeviation="0.5"/>
<feColorMatrix type="matrix" values="0 0 0 0 0.984314 0 0 0 0 0.835294 0 0 0 0 0.258824 0 0 0 1 0"/>
<feBlend mode="normal" in2="BackgroundImageFix" result="effect1_dropShadow"/>
<feBlend mode="normal" in="SourceGraphic" in2="effect1_dropShadow" result="shape"/>
</filter>
</defs>
</svg>
