<svg width="47" height="47" viewBox="0 0 47 47" fill="none" xmlns="http://www.w3.org/2000/svg">
<g clip-path="url(#clip0)" filter="url(#filter0_d)">
<path d="M39.3829 11.6242C38.9775 11.9265 38.8939 12.5002 39.196 12.9056C41.4917 15.9843 42.705 19.6478 42.705 23.4998C42.705 33.2827 34.7462 41.2417 24.9633 41.2417C24.4576 41.2417 24.0475 41.6518 24.0475 42.1575C24.0475 42.6632 24.4576 43.0732 24.9633 43.0732C35.7561 43.0732 44.5365 34.2926 44.5365 23.4998C44.5365 19.2502 43.1975 15.2082 40.6644 11.8108C40.3621 11.4053 39.7884 11.3217 39.3829 11.6242Z" fill="#FBD542"/>
<path d="M24.9633 5.75824C28.3382 5.75824 31.6207 6.70924 34.456 8.50852C34.6082 8.60513 34.7779 8.65122 34.9458 8.65122C35.2489 8.65122 35.5454 8.50089 35.7199 8.22601C35.9908 7.79897 35.8642 7.23319 35.4372 6.96214C32.308 4.97635 28.6862 3.92676 24.9631 3.92676C24.4575 3.92676 24.0474 4.33686 24.0474 4.8425C24.0474 5.34814 24.4576 5.75824 24.9633 5.75824Z" fill="#FBD542"/>
<path d="M45.7317 1.26771C45.3742 0.910112 44.7941 0.910112 44.4368 1.26771L32.4629 13.2415C30.3588 11.6991 27.7662 10.7855 24.9633 10.7855C24.4576 10.7855 24.0475 11.1956 24.0475 11.7012C24.0475 12.207 24.4576 12.617 24.9633 12.617C27.2604 12.617 29.3923 13.3343 31.1503 14.5541L27.7479 17.9565C26.9098 17.5337 25.9642 17.2941 24.9633 17.2941C24.4576 17.2941 24.0475 17.7042 24.0475 18.2098C24.0475 18.7155 24.4576 19.1256 24.9633 19.1256C25.4486 19.1256 25.9152 19.2062 26.3517 19.3528L12.7201 32.9844L11.312 31.5784C11.1403 31.4071 10.9077 31.3107 10.665 31.3107H2.83148V15.6883H10.665C10.9077 15.6883 11.1403 15.592 11.312 15.4206L19.695 7.05047V21.8208C19.695 22.3264 20.1051 22.7365 20.6108 22.7365C21.1164 22.7365 21.5265 22.3264 21.5265 21.8208V4.842C21.5265 4.47174 21.3035 4.13795 20.9615 3.99616C20.6193 3.85453 20.2257 3.93252 19.9636 4.19396L10.2862 13.8569H1.91574C1.4101 13.8569 1 14.267 1 14.7726V32.2263C1 32.732 1.4101 33.1421 1.91574 33.1421H10.2862L11.4251 34.2793L1.26831 44.4362C0.910715 44.7938 0.910715 45.3736 1.26831 45.7312C1.44703 45.91 1.68146 45.9994 1.91589 45.9994C2.15032 45.9994 2.3846 45.91 2.56348 45.7312L12.7213 35.5734L19.9639 42.805C20.139 42.9799 20.3731 43.0727 20.6112 43.0727C20.7292 43.0727 20.8484 43.0499 20.9618 43.0028C21.3038 42.861 21.5268 42.5271 21.5268 42.1569V30.8253C21.5268 30.3196 21.1167 29.9095 20.6111 29.9095C20.1054 29.9095 19.6953 30.3196 19.6953 30.8253V39.9485L14.0165 34.2782L27.9689 20.3257C28.8109 21.1234 29.3376 22.2507 29.3376 23.4993C29.3376 25.9112 27.3755 27.8735 24.9636 27.8735C24.4579 27.8735 24.0478 28.2836 24.0478 28.7893C24.0478 29.2949 24.4579 29.705 24.9636 29.705C28.3854 29.705 31.1691 26.9211 31.1691 23.4993C31.1691 21.7457 30.4368 20.1608 29.2633 19.0313L32.569 15.7256C34.5892 17.7025 35.8463 20.4563 35.8463 23.4993C35.8463 29.5 30.9644 34.3818 24.9636 34.3818C24.4579 34.3818 24.0478 34.7918 24.0478 35.2976C24.0478 35.8032 24.4579 36.2133 24.9636 36.2133C31.9742 36.2133 37.6777 30.5098 37.6777 23.4993C37.6777 19.9513 36.2153 16.7396 33.8634 14.4312L45.7318 2.56272C46.0893 2.20512 46.0893 1.62531 45.7317 1.26771Z" fill="#FBD542"/>
</g>
<defs>
<filter id="filter0_d" x="0" y="0" width="47" height="47" filterUnits="userSpaceOnUse" color-interpolation-filters="sRGB">
<feFlood flood-opacity="0" result="BackgroundImageFix"/>
<feColorMatrix in="SourceAlpha" type="matrix" values="0 0 0 0 0 0 0 0 0 0 0 0 0 0 0 0 0 0 127 0"/>
<feOffset/>
<feGaussianBlur stdDeviation="0.5"/>
<feColorMatrix type="matrix" values="0 0 0 0 0.984314 0 0 0 0 0.835294 0 0 0 0 0.258824 0 0 0 1 0"/>
<feBlend mode="normal" in2="BackgroundImageFix" result="effect1_dropShadow"/>
<feBlend mode="normal" in="SourceGraphic" in2="effect1_dropShadow" result="shape"/>
</filter>
<clipPath id="clip0">
<rect width="45" height="45" fill="white" transform="translate(1 1)"/>
</clipPath>
</defs>
</svg>
