<svg width="45" height="45" viewBox="0 0 45 45" fill="none" xmlns="http://www.w3.org/2000/svg">
<g clip-path="url(#clip0)">
<path d="M43.7019 43.5945H1.2981C0.581245 43.5945 0 43.0136 0 42.2964V34.5984C0 33.8815 0.581245 33.3003 1.2981 33.3003C3.46722 33.3003 4.63074 34.0982 5.56561 34.7395C6.39885 35.3108 7.00069 35.7235 8.36506 35.7235C9.72977 35.7235 10.3316 35.3108 11.1645 34.7395C12.0997 34.0982 13.2632 33.3003 15.4324 33.3003C17.6015 33.3003 18.765 34.0982 19.7002 34.7395C20.5331 35.3108 21.1349 35.7235 22.4993 35.7235C23.864 35.7235 24.4659 35.3108 25.2991 34.7395C26.234 34.0982 27.3975 33.3003 29.5666 33.3003C31.7361 33.3003 32.8996 34.0982 33.8348 34.7395C34.6677 35.3108 35.2695 35.7235 36.6343 35.7235C37.999 35.7235 38.6012 35.3108 39.4341 34.7395C40.3693 34.0982 41.5328 33.3003 43.7019 33.3003C44.4188 33.3003 45 33.8815 45 34.5984V42.2964C45 43.0136 44.4188 43.5945 43.7019 43.5945Z" fill="#FBD542"/>
<path d="M9.47639 30.2265C8.75953 30.2265 8.17828 29.6452 8.17828 28.9284C8.17828 26.9944 9.40326 26.0115 10.2976 25.2936C11.1309 24.6245 11.446 24.3127 11.446 23.6834C11.446 23.0541 11.1309 22.742 10.2976 22.0732C9.40326 21.3554 8.17828 20.3721 8.17828 18.4381C8.17828 16.5046 9.40326 15.5213 10.2976 14.8037C11.1309 14.1346 11.446 13.8225 11.446 13.1936C11.446 12.5642 11.1309 12.2525 10.2976 11.5837C9.40326 10.8658 8.17828 9.88289 8.17828 7.94895C8.17828 6.01501 9.40326 5.03208 10.2976 4.31419C11.1309 3.6454 11.446 3.33332 11.446 2.70435C11.446 1.9875 12.0273 1.40625 12.7441 1.40625C13.461 1.40625 14.0422 1.9875 14.0422 2.70435C14.0422 4.63829 12.8169 5.62122 11.9226 6.33911C11.0893 7.00756 10.7745 7.31964 10.7745 7.94895C10.7745 8.57792 11.0893 8.89 11.9226 9.55879C12.8169 10.2767 14.0422 11.2596 14.0422 13.1936C14.0422 15.1275 12.8169 16.1104 11.9226 16.8283C11.0893 17.4971 10.7745 17.8092 10.7745 18.4381C10.7745 19.0675 11.0893 19.3799 11.9226 20.0483C12.8169 20.7662 14.0422 21.7495 14.0422 23.6834C14.0422 25.6174 12.8173 26.6003 11.9226 27.3182C11.0893 27.987 10.7745 28.2991 10.7745 28.9284C10.7745 29.6456 10.1932 30.2265 9.47639 30.2265Z" fill="#FBD542"/>
<path d="M17.0696 30.2265C16.3528 30.2265 15.7715 29.6452 15.7715 28.9284C15.7715 26.9944 16.9965 26.0115 17.8909 25.2936C18.7245 24.6245 19.0393 24.3127 19.0393 23.6834C19.0393 23.0541 18.7245 22.742 17.8909 22.0732C16.9965 21.3554 15.7715 20.3721 15.7715 18.4381C15.7715 16.5046 16.9965 15.5213 17.8909 14.8037C18.7245 14.1346 19.0393 13.8225 19.0393 13.1936C19.0393 12.5642 18.7245 12.2525 17.8912 11.5837C16.9965 10.8658 15.7715 9.88289 15.7715 7.94895C15.7715 6.01501 16.9965 5.03208 17.8912 4.31419C18.7245 3.6454 19.0393 3.33332 19.0393 2.70435C19.0393 1.9875 19.6205 1.40625 20.3374 1.40625C21.0543 1.40625 21.6355 1.9875 21.6355 2.70435C21.6355 4.63829 20.4105 5.62122 19.5158 6.33911C18.6826 7.00756 18.3678 7.31964 18.3678 7.94895C18.3678 8.57792 18.6826 8.89 19.5158 9.55879C20.4105 10.2767 21.6355 11.2596 21.6355 13.1936C21.6355 15.1275 20.4105 16.1104 19.5158 16.8283C18.6826 17.4971 18.3678 17.8092 18.3678 18.4381C18.3678 19.0675 18.6826 19.3799 19.5162 20.0483C20.4105 20.7662 21.6355 21.7495 21.6355 23.6834C21.6355 25.6174 20.4105 26.6003 19.5162 27.3182C18.6826 27.987 18.3678 28.2991 18.3678 28.9284C18.3678 29.6456 17.7865 30.2265 17.0696 30.2265Z" fill="#FBD542"/>
<path d="M24.6632 30.2265C23.9464 30.2265 23.3651 29.6452 23.3651 28.9284C23.3651 26.9944 24.5901 26.0115 25.4845 25.2936C26.3177 24.6245 26.6329 24.3127 26.6329 23.6834C26.6329 23.0541 26.3177 22.742 25.4845 22.0732C24.5901 21.3554 23.3651 20.3721 23.3651 18.4381C23.3651 16.5046 24.5901 15.5213 25.4845 14.8037C26.3177 14.1346 26.6329 13.8225 26.6329 13.1936C26.6329 12.5642 26.3177 12.2525 25.4845 11.5837C24.5901 10.8658 23.3651 9.88289 23.3651 7.94895C23.3651 6.01501 24.5901 5.03208 25.4845 4.31419C26.3177 3.6454 26.6329 3.33332 26.6329 2.70435C26.6329 1.9875 27.2141 1.40625 27.931 1.40625C28.6478 1.40625 29.2291 1.9875 29.2291 2.70435C29.2291 4.63829 28.0038 5.62122 27.1094 6.33911C26.2762 7.00756 25.9613 7.31964 25.9613 7.94895C25.9613 8.57792 26.2762 8.89 27.1094 9.55879C28.0038 10.2767 29.2291 11.2596 29.2291 13.1936C29.2291 15.1275 28.0038 16.1104 27.1094 16.8283C26.2762 17.4971 25.9613 17.8092 25.9613 18.4381C25.9613 19.0675 26.2762 19.3799 27.1094 20.0483C28.0038 20.7662 29.2291 21.7495 29.2291 23.6834C29.2291 25.6174 28.0041 26.6003 27.1094 27.3182C26.2762 27.987 25.9613 28.2991 25.9613 28.9284C25.9613 29.6456 25.3801 30.2265 24.6632 30.2265Z" fill="#FBD542"/>
<path d="M32.2565 30.2265C31.5396 30.2265 30.9584 29.6452 30.9584 28.9284C30.9584 26.9944 32.1833 26.0115 33.0777 25.2936C33.9113 24.6245 34.2261 24.3127 34.2261 23.6834C34.2261 23.0541 33.9113 22.742 33.0777 22.0732C32.1833 21.3554 30.9584 20.3721 30.9584 18.4381C30.9584 16.5046 32.1833 15.5213 33.0777 14.8037C33.9113 14.1346 34.2261 13.8225 34.2261 13.1936C34.2261 12.5642 33.9113 12.2525 33.078 11.5837C32.1833 10.8658 30.9587 9.88289 30.9587 7.94895C30.9587 6.01501 32.1837 5.03208 33.078 4.31419C33.9113 3.6454 34.2261 3.33366 34.2261 2.70435C34.2261 1.9875 34.8074 1.40625 35.5242 1.40625C36.2411 1.40625 36.8223 1.9875 36.8223 2.70435C36.8223 4.63829 35.5974 5.62122 34.703 6.33911C33.8698 7.00756 33.5549 7.31964 33.5549 7.94895C33.5549 8.57792 33.8698 8.89 34.703 9.55879C35.5974 10.2767 36.8223 11.2596 36.8223 13.1936C36.8223 15.1275 35.5974 16.1104 34.703 16.8283C33.8698 17.4971 33.5549 17.8092 33.5549 18.4381C33.5549 19.0675 33.8698 19.3799 34.703 20.0483C35.5977 20.7662 36.8223 21.7495 36.8223 23.6834C36.8223 25.6174 35.5977 26.6003 34.703 27.3182C33.8698 27.987 33.5549 28.2991 33.5549 28.9284C33.5546 29.6456 32.9733 30.2265 32.2565 30.2265Z" fill="#FBD542"/>
</g>
<defs>
<clipPath id="clip0">
<rect width="45" height="45" fill="white"/>
</clipPath>
</defs>
</svg>
