<svg width="45" height="45" viewBox="0 0 45 45" fill="none" xmlns="http://www.w3.org/2000/svg">
<g clip-path="url(#clip0)">
<path d="M34.1949 36.902C34.1949 37.8723 33.4084 38.6592 32.4378 38.6592C31.4676 38.6592 30.681 37.8723 30.681 36.902C30.681 35.9318 31.4676 35.1453 32.4378 35.1453C33.4084 35.1453 34.1949 35.9318 34.1949 36.902ZM40.6954 27.0631H45V23.5492H40.6954V27.0631ZM40.6954 17.3999V20.9138H45V17.3999H40.6954ZM40.6954 33.2124H45V29.6988H40.6954V33.2124ZM38.0601 31.2142C39.5576 32.7413 40.4321 34.8116 40.4321 36.902C40.4321 41.3584 36.8063 44.9839 32.3499 44.9839C27.8936 44.9839 24.2681 41.3584 24.2681 36.902C24.2681 34.815 25.1398 32.7475 26.6336 31.2207L26.6401 20.4737C26.6401 17.3261 29.2017 14.7646 32.3499 14.7646C35.4985 14.7646 38.0601 17.3261 38.0601 20.4747V31.2142ZM36.9182 36.902C36.9182 35.5665 36.27 34.2337 35.1844 33.3373L34.5462 32.8103V20.4747C34.5462 19.2638 33.5608 18.2785 32.3499 18.2785C31.139 18.2785 30.1537 19.2638 30.1537 20.4747L30.1465 32.8148L29.5107 33.3414C28.4282 34.2382 27.782 35.5689 27.782 36.902C27.782 39.421 29.8313 41.4703 32.3499 41.4703C34.8689 41.4703 36.9182 39.421 36.9182 36.902ZM9.68548 41.4703C8.71662 41.4703 7.9287 40.682 7.9287 39.7132V18.0598L22.511 4.75639L29.6298 11.2507H34.8438L22.511 0L0 20.5365L2.36824 23.1324L4.41479 21.2654V39.7132C4.41479 42.6197 6.77925 44.9842 9.68548 44.9842H24.0432C23.0596 43.9731 22.258 42.7842 21.6925 41.4703H9.68548Z" fill="#FBD542"/>
</g>
<defs>
<clipPath id="clip0">
<rect width="45" height="45" fill="white"/>
</clipPath>
</defs>
</svg>
