<svg width="45" height="45" viewBox="0 0 45 45" fill="none" xmlns="http://www.w3.org/2000/svg"><g clip-path="url(#clip0)" fill="#FBD542"><path d="M14.067 13.872l10.591 10.591c.24-2.608.731-12.15-4.291-17.173-1.706-1.706-3.962-2.8-6.3-3.497v10.079zM1.04 4.574C.916 6.444.738 12.017 2.5 16.878h10.845L1.04 4.574zM11.43 11.236V3.168c-3.68-.673-7.132-.55-8.526-.458l8.526 8.526zM15.981 19.515H3.712c.531.92 1.16 1.774 1.908 2.521 3.756 3.756 10.04 4.429 14.061 4.429 1.356 0 2.455-.077 3.113-.137l-6.813-6.813zM43.597 10.463c.673-3.68.55-7.131.459-8.525l-8.526 8.525h8.067zM29.887 12.378L42.192.073c-1.87-.124-7.444-.302-12.305 1.46v10.845zM32.893 13.1l-5.558 5.558c.15 2.057.1 3.874.02 5.116 3.904-.216 8.926-1.18 12.12-4.374 1.706-1.706 2.801-3.962 3.497-6.3H32.893zM26.924 15.341l.326-.326V2.745c-.92.531-1.773 1.161-2.521 1.908a11.554 11.554 0 00-1.51 1.878c1.126 1.402 2.039 3.083 2.72 5.017.412 1.172.741 2.441.985 3.793zM7.278 35.83h3.34c.571 0 .9.55.9 1.142 0 .506-.285 1.1-.9 1.1h-3.34v4.415h6.218c.571 0 .9.593.9 1.274 0 .594-.285 1.23-.9 1.23H5.674c-.636 0-1.252-.307-1.252-.9V29.832c0-.593.616-.9 1.252-.9h7.822c.615 0 .9.636.9 1.23 0 .68-.329 1.274-.9 1.274H7.278v4.394zM22.174 31.313c-1.472 0-2.306.812-2.306 2.526v6.13c0 1.714.834 2.527 2.35 2.527 2 0 2.175-1.429 2.241-2.352.044-.68.66-.9 1.407-.9.988 0 1.45.286 1.45 1.406 0 2.659-2.175 4.35-5.251 4.35-2.769 0-5.054-1.362-5.054-5.031v-6.13c0-3.67 2.307-5.031 5.076-5.031 3.053 0 5.229 1.626 5.229 4.174 0 1.143-.462 1.406-1.428 1.406-.813 0-1.407-.241-1.429-.9-.044-.682-.197-2.175-2.285-2.175zM30.172 39.969v-6.13c0-3.67 2.24-5.031 5.14-5.031 2.9 0 5.164 1.362 5.164 5.031v6.13c0 3.669-2.263 5.031-5.163 5.031-2.9 0-5.141-1.362-5.141-5.031zm7.448-6.13c0-1.736-.88-2.526-2.307-2.526-1.45 0-2.285.79-2.285 2.526v6.13c0 1.736.835 2.527 2.285 2.527 1.428 0 2.307-.791 2.307-2.527v-6.13z"/></g><defs><clipPath id="clip0"><path fill="#fff" d="M0 0h45v45H0z"/></clipPath></defs></svg>