<svg width="45" height="45" viewBox="0 0 45 45" fill="none" xmlns="http://www.w3.org/2000/svg"><g clip-path="url(#clip0)" fill="#FBD542"><path d="M25.55 31.034h-1.11a.388.388 0 00-.388.388v.776a.388.388 0 01-.388.388h-2.328a.388.388 0 01-.388-.388v-.776a.388.388 0 00-.388-.388h-1.11a.388.388 0 01-.3-.636l3.052-3.661a.388.388 0 01.596 0l3.051 3.66a.388.388 0 01-.298.637zM11.585 27.931h-1.11a.388.388 0 00-.389.388v3.88a.388.388 0 01-.388.387H7.371a.388.388 0 01-.388-.388V28.32a.388.388 0 00-.388-.388H5.484a.388.388 0 01-.299-.636l3.052-3.661a.388.388 0 01.595 0l3.052 3.66a.388.388 0 01-.299.637zM39.516 27.931h-1.11a.388.388 0 00-.389.388v3.88a.388.388 0 01-.388.387h-2.327a.388.388 0 01-.388-.388V28.32a.388.388 0 00-.388-.388h-1.111a.388.388 0 01-.299-.636l3.052-3.661a.388.388 0 01.595 0l3.052 3.66a.388.388 0 01-.299.637zM19.061 22.372a4.44 4.44 0 01-.806-3.458 3.98 3.98 0 002.349.762.915.915 0 00.948-.874c.007-.418.037-.836.088-1.25a3.38 3.38 0 002.756 1.249 3.976 3.976 0 002.3-.727c.212 1.409.263 3.408-.776 4.69-.698.867-1.817 1.288-3.42 1.288a4.518 4.518 0 01-3.439-1.68zm9.363-.543a11.72 11.72 0 00-.274-5.908.93.93 0 00-.823-.621.974.974 0 00-.93.473 2.566 2.566 0 01-2 1.271c-1.857 0-1.895-2.52-1.896-2.625a.893.893 0 00-.73-.854.977.977 0 00-1.067.46 10.184 10.184 0 00-.986 3.677 2.949 2.949 0 01-1.11-1.051.974.974 0 00-.916-.482.94.94 0 00-.832.597 7.15 7.15 0 00-.15 5.17 7.586 7.586 0 01-2.745-5.76c.079-1.713.388-3.408.92-5.038.445-1.623.561-3.318.342-4.985a4.957 4.957 0 012.58 2.423.959.959 0 001.052.588.9.9 0 00.796-.862c0-2.263 1.67-3.802 2.567-4.632A4.544 4.544 0 0023.881 0c.267.197.496.44.678.718a4.406 4.406 0 01-.063 4.565c-.422.78-2.458 4.787-.979 6.996a3.103 3.103 0 002.776 1.271 3.087 3.087 0 002.492-1.079 4.144 4.144 0 00.808-2.358 13.325 13.325 0 011.442 6.063 7.572 7.572 0 01-2.61 5.657v-.004zM43.448 41.897H1.552a1.552 1.552 0 100 3.103h41.896a1.552 1.552 0 100-3.103zM43.448 34.138H1.552a1.552 1.552 0 100 3.104h41.896a1.552 1.552 0 100-3.104zM5.066 38.017L2.995 41.12H1.552c-.149 0-.297.016-.443.047l2.103-3.15h1.854zM8.946 38.017L6.874 41.12H5.02l2.071-3.103h1.855zM12.825 38.017l-2.072 3.103H8.9l2.072-3.103h1.854zM16.704 38.017l-2.071 3.103h-1.855l2.072-3.103h1.854zM20.584 38.017l-2.072 3.103h-1.854l2.071-3.103h1.855zM24.463 38.017L22.39 41.12h-1.854l2.072-3.103h1.854zM28.342 38.017l-2.071 3.103h-1.855l2.072-3.103h1.854zM32.221 38.017L30.15 41.12h-1.854l2.071-3.103h1.854zM36.1 38.017l-2.07 3.103h-1.855l2.072-3.103H36.1zM39.98 38.017L37.91 41.12h-1.855l2.072-3.103h1.854zM43.89 37.97l-2.102 3.15h-1.854l2.071-3.103h1.443c.149 0 .297-.015.443-.046z"/></g><defs><clipPath id="clip0"><path fill="#fff" d="M0 0h45v45H0z"/></clipPath></defs></svg>