<svg width="30" height="30" viewBox="0 0 30 30" fill="none" xmlns="http://www.w3.org/2000/svg"><g clip-path="url(#clip0)" fill="#FBD542"><path d="M19.523 6.74a10.26 10.26 0 00-9.21-5.744C4.627.996.001 5.596.001 11.249c0 1.537.33 3.01.98 4.383l-.963 4.82a.88.88 0 001.032 1.034l4.88-.965c.657.312 1.336.55 2.035.712C6.399 13.82 12.019 6.86 19.523 6.74z"/><path d="M29.019 23.132c.168-.355.315-.717.44-1.085h-.032c2.194-6.44-2.42-13.21-9.232-13.539-5.862-.27-10.732 4.422-10.732 10.241 0 5.65 4.592 10.246 10.239 10.254 1.531-.002 3-.332 4.369-.981 5.344 1.056 4.927.981 5.05.981a.88.88 0 00.862-1.051l-.964-4.82z"/></g><defs><clipPath id="clip0"><path fill="#fff" d="M0 0h30v30H0z"/></clipPath></defs></svg>