<svg width="30" height="30" viewBox="0 0 30 30" fill="none" xmlns="http://www.w3.org/2000/svg"><path d="M29.736 5.96L20.637 15l9.099 9.04c.164-.344.264-.724.264-1.13V7.09c0-.406-.1-.786-.264-1.13zM27.363 4.453H2.637c-.406 0-.786.1-1.13.264l11.629 11.57a2.639 2.639 0 003.728 0l11.629-11.57a2.606 2.606 0 00-1.13-.264zM.264 5.96A2.606 2.606 0 000 7.09v15.82c0 .406.1.786.264 1.13L9.363 15 .264 5.96z" fill="#FBD542"/><path d="M19.395 16.243l-1.288 1.287a4.4 4.4 0 01-6.214 0l-1.288-1.287-9.098 9.04c.344.164.724.264 1.13.264h24.726c.406 0 .786-.1 1.13-.265l-9.098-9.04z" fill="#FBD542"/></svg>