<svg width="40" height="28" viewBox="0 0 40 28" fill="none" xmlns="http://www.w3.org/2000/svg"><path d="M38.3 2.65C37.215.72 36.038.365 33.64.23 31.245.067 25.222 0 20.005 0 14.778 0 8.753.068 6.36.228 3.967.365 2.787.718 1.692 2.65.575 4.577 0 7.898 0 13.742v.021c0 5.82.575 9.164 1.692 11.072 1.096 1.93 2.273 2.28 4.665 2.442 2.395.14 8.42.223 13.648.223 5.218 0 11.24-.082 13.637-.22 2.398-.163 3.575-.513 4.66-2.443C39.43 22.93 40 19.585 40 13.765v-.013-.007c0-5.847-.57-9.168-1.7-11.095z" fill="#F44336"/><path d="M15 21.25v-15l12.5 7.5-12.5 7.5z" fill="#FAFAFA"/></svg>