<svg width="47" height="47" viewBox="0 0 47 47" fill="none" xmlns="http://www.w3.org/2000/svg"><g filter="url(#filter0_d)" fill="#FBD542"><path d="M44.35 13.245l-.01-.009a.95.95 0 00-1.307.018.91.91 0 000 1.29 3.84 3.84 0 01-5.429 5.428c-.018-.018-.027-.027-.046-.036a16.94 16.94 0 00-5.145-4.726c2.093-4.935-.22-10.629-5.155-12.713-4.935-2.084-10.63.22-12.713 5.155a9.934 9.934 0 00-.75 3.162c-.968-.274-1.745-.402-2.348-.384-.97.01-1.682.613-1.792 1.5-.064.392-.018.968.192 2.842l.192 1.791c-1.755 1.426-3.135 3.09-4.131 4.954l-2.65.52A2.817 2.817 0 001 24.798v5.878a2.81 2.81 0 002.257 2.76l2.66.53a14.597 14.597 0 001.91 2.86 6.036 6.036 0 001.792 6.928 6.78 6.78 0 004.304 1.517c1.783 0 3.5-.676 4.808-1.891l.64-.604c2.358.357 4.77.275 7.101-.219l.905.868a6.67 6.67 0 004.634 1.82h.219a6.79 6.79 0 004.734-2.094c1.92-2.029 2.148-5.081.631-7.476 1.718-2.395 2.623-5.136 2.623-7.97v-.667-.055c-.082-1.362-.439-2.77-1.06-4.195a5.639 5.639 0 005.182-1.535 5.668 5.668 0 00.01-8.007zM23.482 3.548a7.86 7.86 0 014.397 14.386c-.074.055-.147.165-.201.165h-8.354c-.037 0-.082-.055-.128-.092a7.89 7.89 0 01-3.574-6.041c-.018-.21-.018-.393-.018-.558.01-4.332 3.528-7.85 7.878-7.86zm12.339 31.45c-.156.182-.393.603-.11 1.17.028.054.055.1.092.146 1.325 1.727 1.252 4.067-.174 5.575-.905.941-2.13 1.526-3.455 1.526h-.173a4.864 4.864 0 01-3.373-1.316l-1.188-1.133a1.082 1.082 0 00-.987-.274 18.02 18.02 0 01-7.166.228c-.055-.01-.1-.01-.155-.01-.293-.008-.567.102-.777.303l-.896.85a5.22 5.22 0 01-3.336 1.389 5.006 5.006 0 01-3.372-1.088 4.23 4.23 0 01-1.115-5.136 1 1 0 00.1-.777.919.919 0 00-.219-.43A13.285 13.285 0 017.38 32.86a.927.927 0 00-.173-.247 1.149 1.149 0 00-.65-.356l-2.942-.594a.989.989 0 01-.786-.97v-5.894a.97.97 0 01.786-.969l2.952-.594c.247-.046.475-.165.649-.357a.883.883 0 00.174-.237c.932-1.865 2.321-3.528 4.122-4.917.027-.028.054-.046.082-.073.21-.21.32-.494.31-.786 0-.037 0-.064-.009-.1l-.237-2.194c-.082-.704-.22-1.974-.201-2.322h.036c.366-.009 1.07.055 2.367.475a9.617 9.617 0 002.605 5.384h-.868a.917.917 0 00-.914.914c0 .502.411.914.914.914h15.839a.917.917 0 00.914-.914.917.917 0 00-.914-.914h-.95a7.295 7.295 0 001.06-1.307c2.11 1.28 3.847 2.998 5.045 4.972l.648 1.252c.668 1.38 1.052 2.778 1.143 4.058v.63c0 2.605-.887 5.118-2.56 7.285z"/><path d="M13.658 23.134a2.338 2.338 0 00-2.34 2.34 2.338 2.338 0 002.34 2.34 2.344 2.344 0 002.34-2.34 2.333 2.333 0 00-2.34-2.34zm0 2.861a.511.511 0 11.512-.512.5.5 0 01-.512.512zM23.483 5.87a5.535 5.535 0 00-5.538 5.539 5.558 5.558 0 005.538 5.538 5.535 5.535 0 005.539-5.538 5.535 5.535 0 00-5.539-5.539zm0 9.25a3.713 3.713 0 01-3.71-3.711 3.713 3.713 0 013.71-3.711 3.713 3.713 0 013.711 3.71 3.713 3.713 0 01-3.71 3.711z"/></g><defs><filter id="filter0_d" x="0" y="0" width="47" height="47" filterUnits="userSpaceOnUse" color-interpolation-filters="sRGB"><feFlood flood-opacity="0" result="BackgroundImageFix"/><feColorMatrix in="SourceAlpha" values="0 0 0 0 0 0 0 0 0 0 0 0 0 0 0 0 0 0 127 0"/><feOffset/><feGaussianBlur stdDeviation=".5"/><feColorMatrix values="0 0 0 0 0.984314 0 0 0 0 0.835294 0 0 0 0 0.258824 0 0 0 1 0"/><feBlend in2="BackgroundImageFix" result="effect1_dropShadow"/><feBlend in="SourceGraphic" in2="effect1_dropShadow" result="shape"/></filter></defs></svg>