<svg width="47" height="47" viewBox="0 0 47 47" fill="none" xmlns="http://www.w3.org/2000/svg"><g clip-path="url(#clip0)" filter="url(#filter0_d)" fill="#FBD542"><path d="M39.383 11.624a.916.916 0 00-.187 1.282A17.593 17.593 0 0142.705 23.5c0 9.783-7.959 17.742-17.742 17.742a.916.916 0 000 1.831c10.793 0 19.573-8.78 19.573-19.573 0-4.25-1.339-8.292-3.872-11.69a.915.915 0 00-1.281-.186zM24.963 5.758c3.375 0 6.658.951 9.493 2.75a.915.915 0 10.981-1.546 19.514 19.514 0 00-10.474-3.035.916.916 0 000 1.831z"/><path d="M45.732 1.268a.916.916 0 00-1.295 0L32.463 13.242a12.644 12.644 0 00-7.5-2.457.916.916 0 000 1.832c2.297 0 4.43.717 6.187 1.937l-3.402 3.402a6.165 6.165 0 00-2.785-.662.916.916 0 000 1.832c.486 0 .952.08 1.389.227L12.72 32.984l-1.408-1.406a.916.916 0 00-.647-.267H2.831V15.688h7.834a.916.916 0 00.647-.267l8.383-8.37v14.77a.916.916 0 001.831 0V4.842a.916.916 0 00-1.562-.648l-9.678 9.663h-8.37a.916.916 0 00-.916.916v17.453c0 .506.41.916.916.916h8.37l1.14 1.137L1.267 44.436a.916.916 0 101.295 1.295l10.158-10.158 7.243 7.232a.915.915 0 001.563-.648V30.825a.916.916 0 00-1.832 0v9.124l-5.678-5.67 13.952-13.953a4.36 4.36 0 011.369 3.173 4.379 4.379 0 01-4.374 4.375.916.916 0 000 1.831 6.213 6.213 0 006.205-6.206 6.186 6.186 0 00-1.906-4.468l3.306-3.305a10.849 10.849 0 013.277 7.773c0 6.001-4.882 10.883-10.882 10.883a.916.916 0 000 1.831c7.01 0 12.714-5.703 12.714-12.714 0-3.548-1.463-6.76-3.815-9.068L45.732 2.563a.916.916 0 000-1.295z"/></g><defs><clipPath id="clip0"><path fill="#fff" transform="translate(1 1)" d="M0 0h45v45H0z"/></clipPath><filter id="filter0_d" x="0" y="0" width="47" height="47" filterUnits="userSpaceOnUse" color-interpolation-filters="sRGB"><feFlood flood-opacity="0" result="BackgroundImageFix"/><feColorMatrix in="SourceAlpha" values="0 0 0 0 0 0 0 0 0 0 0 0 0 0 0 0 0 0 127 0"/><feOffset/><feGaussianBlur stdDeviation=".5"/><feColorMatrix values="0 0 0 0 0.984314 0 0 0 0 0.835294 0 0 0 0 0.258824 0 0 0 1 0"/><feBlend in2="BackgroundImageFix" result="effect1_dropShadow"/><feBlend in="SourceGraphic" in2="effect1_dropShadow" result="shape"/></filter></defs></svg>