<svg width="45" height="45" viewBox="0 0 45 45" fill="none" xmlns="http://www.w3.org/2000/svg"><g clip-path="url(#clip0)" fill="#FBD542"><path d="M43.702 43.594H1.298c-.717 0-1.298-.58-1.298-1.298v-7.698c0-.716.581-1.298 1.298-1.298 2.17 0 3.333.798 4.268 1.44.833.57 1.435.983 2.8.983 1.364 0 1.966-.412 2.799-.983.935-.642 2.098-1.44 4.267-1.44 2.17 0 3.333.798 4.268 1.44.833.57 1.435.983 2.8.983 1.364 0 1.966-.412 2.8-.983.934-.642 2.098-1.44 4.267-1.44 2.17 0 3.333.798 4.268 1.44.833.57 1.434.983 2.8.983 1.364 0 1.966-.412 2.8-.983.934-.642 2.098-1.44 4.267-1.44.717 0 1.298.582 1.298 1.298v7.698c0 .718-.581 1.298-1.298 1.298zM9.476 30.227a1.298 1.298 0 01-1.298-1.299c0-1.934 1.225-2.916 2.12-3.634.833-.67 1.148-.981 1.148-1.61 0-.63-.315-.942-1.148-1.61-.895-.719-2.12-1.702-2.12-3.636 0-1.933 1.225-2.917 2.12-3.634.833-.67 1.148-.982 1.148-1.61 0-.63-.315-.942-1.148-1.61-.895-.718-2.12-1.701-2.12-3.635 0-1.934 1.225-2.917 2.12-3.635.833-.669 1.148-.98 1.148-1.61a1.298 1.298 0 012.596 0c0 1.934-1.225 2.917-2.12 3.635-.833.669-1.148.98-1.148 1.61 0 .629.315.941 1.149 1.61.894.718 2.12 1.7 2.12 3.635 0 1.933-1.226 2.916-2.12 3.634-.834.67-1.149.981-1.149 1.61 0 .63.315.942 1.149 1.61.894.718 2.12 1.702 2.12 3.635 0 1.934-1.226 2.917-2.12 3.635-.834.669-1.149.981-1.149 1.61 0 .718-.58 1.299-1.298 1.299zM17.07 30.227a1.298 1.298 0 01-1.299-1.299c0-1.934 1.226-2.916 2.12-3.634.834-.67 1.148-.981 1.148-1.61 0-.63-.315-.942-1.148-1.61-.894-.719-2.12-1.702-2.12-3.636 0-1.933 1.226-2.917 2.12-3.634.834-.67 1.148-.982 1.148-1.61 0-.63-.315-.942-1.148-1.61-.894-.718-2.12-1.701-2.12-3.635 0-1.934 1.226-2.917 2.12-3.635.834-.669 1.148-.98 1.148-1.61a1.298 1.298 0 012.596 0c0 1.934-1.225 2.917-2.12 3.635-.832.669-1.147.98-1.147 1.61 0 .629.315.941 1.148 1.61.895.718 2.12 1.7 2.12 3.635 0 1.933-1.226 2.916-2.12 3.634-.833.67-1.148.981-1.148 1.61 0 .63.315.942 1.148 1.61.895.718 2.12 1.702 2.12 3.635 0 1.934-1.226 2.917-2.12 3.635-.833.669-1.148.981-1.148 1.61 0 .718-.581 1.299-1.298 1.299zM24.663 30.227a1.298 1.298 0 01-1.298-1.299c0-1.934 1.225-2.916 2.12-3.634.833-.67 1.148-.981 1.148-1.61 0-.63-.315-.942-1.148-1.61-.895-.719-2.12-1.702-2.12-3.636 0-1.933 1.225-2.917 2.12-3.634.833-.67 1.148-.982 1.148-1.61 0-.63-.315-.942-1.148-1.61-.895-.718-2.12-1.701-2.12-3.635 0-1.934 1.225-2.917 2.12-3.635.833-.669 1.148-.98 1.148-1.61a1.298 1.298 0 012.596 0c0 1.934-1.225 2.917-2.12 3.635-.833.669-1.148.98-1.148 1.61 0 .629.315.941 1.148 1.61.895.718 2.12 1.7 2.12 3.635 0 1.933-1.225 2.916-2.12 3.634-.833.67-1.148.981-1.148 1.61 0 .63.315.942 1.148 1.61.895.718 2.12 1.702 2.12 3.635 0 1.934-1.225 2.917-2.12 3.635-.833.669-1.148.981-1.148 1.61 0 .718-.58 1.299-1.298 1.299zM32.257 30.227a1.298 1.298 0 01-1.299-1.299c0-1.934 1.225-2.916 2.12-3.634.833-.67 1.148-.981 1.148-1.61 0-.63-.315-.942-1.148-1.61-.895-.719-2.12-1.702-2.12-3.636 0-1.933 1.225-2.917 2.12-3.634.833-.67 1.148-.982 1.148-1.61 0-.63-.315-.942-1.148-1.61-.895-.718-2.12-1.701-2.12-3.635 0-1.934 1.226-2.917 2.12-3.635.833-.669 1.148-.98 1.148-1.61a1.298 1.298 0 012.596 0c0 1.934-1.225 2.917-2.119 3.635-.833.669-1.148.98-1.148 1.61 0 .629.315.941 1.148 1.61.894.718 2.12 1.7 2.12 3.635 0 1.933-1.226 2.916-2.12 3.634-.833.67-1.148.981-1.148 1.61 0 .63.315.942 1.148 1.61.895.718 2.12 1.702 2.12 3.635 0 1.934-1.225 2.917-2.12 3.635-.833.669-1.148.981-1.148 1.61 0 .718-.582 1.299-1.298 1.299z"/></g><defs><clipPath id="clip0"><path fill="#fff" d="M0 0h45v45H0z"/></clipPath></defs></svg>