<svg width="45" height="45" viewBox="0 0 45 45" fill="none" xmlns="http://www.w3.org/2000/svg"><g clip-path="url(#clip0)"><path d="M34.195 36.902a1.757 1.757 0 11-3.514 0 1.757 1.757 0 013.514 0zm6.5-9.839H45V23.55h-4.305v3.514zm0-9.663v3.514H45V17.4h-4.305zm0 15.812H45V29.7h-4.305v3.513zm-2.635-1.998c1.498 1.527 2.372 3.598 2.372 5.688 0 4.456-3.626 8.082-8.082 8.082-4.456 0-8.082-3.626-8.082-8.082 0-2.087.872-4.154 2.366-5.681l.006-10.747a5.716 5.716 0 015.71-5.71 5.717 5.717 0 015.71 5.71v10.74zm-1.142 5.688c0-1.336-.648-2.668-1.734-3.565l-.638-.527V20.475c0-1.211-.985-2.197-2.196-2.197-1.211 0-2.196.986-2.196 2.197l-.008 12.34-.635.526c-1.083.897-1.729 2.228-1.729 3.561a4.573 4.573 0 004.568 4.568 4.573 4.573 0 004.568-4.568zM9.685 41.47a1.759 1.759 0 01-1.756-1.757V18.06L22.51 4.756l7.119 6.495h5.214L22.51 0 0 20.537l2.368 2.595 2.047-1.867v18.448a5.277 5.277 0 005.27 5.271h14.358a11.645 11.645 0 01-2.35-3.514H9.684z" fill="#FBD542"/></g><defs><clipPath id="clip0"><path fill="#fff" d="M0 0h45v45H0z"/></clipPath></defs></svg>