<svg xmlns="http://www.w3.org/2000/svg" xmlns:xlink="http://www.w3.org/1999/xlink"><defs><clipPath id="clip0"><rect x=".249" width="38.751" height="38.751" rx="6" fill="#fff"/></clipPath><linearGradient id="paint0_linear" x1="2.496" y1="36.275" x2="38.511" y2="5.105" gradientUnits="userSpaceOnUse"><stop stop-color="#FD5"/><stop offset=".5" stop-color="#FF543E"/><stop offset="1" stop-color="#C837AB"/></linearGradient><clipPath id="clip0"><path fill="#fff" d="M0 0h38.751v38.751H0z"/></clipPath><radialGradient cx="-578.95" cy="-837.6" gradientTransform="matrix(.75 0 0 .75 499.5 629.5)" gradientUnits="userSpaceOnUse" id="radial-gradient" r="197.06"><stop offset="0" stop-color="#f9ed32"/><stop offset=".36" stop-color="#ee2a7b"/><stop offset=".44" stop-color="#d22a8a"/><stop offset=".6" stop-color="#8b2ab2"/><stop offset=".83" stop-color="#1b2af0"/><stop offset=".88" stop-color="#002aff"/></radialGradient><style>.cls-2{fill:#fff}</style></defs><symbol id="facebook" viewBox="0 0 39 39"><g clip-path="url(#clip0)"><rect x=".249" width="38.751" height="38.751" rx="6" fill="#fff"/><path d="M33.778 0H5.471A5.222 5.222 0 00.25 5.222v28.307A5.222 5.222 0 005.47 38.75h13.961l.024-13.847h-3.598a.849.849 0 01-.848-.845l-.018-4.464a.849.849 0 01.85-.852h3.59v-4.313c0-5.005 3.057-7.73 7.522-7.73h3.664c.468 0 .849.38.849.848v3.764c0 .469-.38.849-.849.849l-2.248.001c-2.428 0-2.899 1.154-2.899 2.847v3.734h5.336c.508 0 .903.444.843.949l-.53 4.463a.849.849 0 01-.842.75h-4.783l-.024 13.847h8.307A5.222 5.222 0 0039 33.529V5.222A5.222 5.222 0 0033.778 0z" fill="#475993"/></g></symbol><symbol id="icon-next" viewBox="0 0 20 29"><path transform="matrix(.81533 .579 .18774 -.98222 1 .4)" stroke="currentColor" d="M0-.5h22.568"/><path transform="matrix(.81533 -.579 .18774 .98222 1 28.4)" stroke="currentColor" d="M0-.5h22.568"/></symbol><symbol id="icon-prew" viewBox="0 0 20 28"><path transform="matrix(-.81533 .579 -.18774 -.98222 19.2 0)" stroke="currentColor" d="M0-.5h22.568"/><path transform="matrix(-.81533 -.579 -.18774 .98222 19.2 28)" stroke="currentColor" d="M0-.5h22.568"/></symbol><symbol id="in" viewBox="0 0 39 39"><g clip-path="url(#clip0)"><path d="M2.422 2.636C-.623 5.8 0 9.16 0 19.366 0 27.844-1.48 36.342 6.26 38.343c2.417.621 23.834.621 26.247-.004 3.223-.831 5.845-3.445 6.204-8.003.05-.637.05-21.289-.002-21.938-.38-4.855-3.37-7.653-7.308-8.22C30.5.047 30.32.007 25.688 0 9.263.008 5.662-.724 2.422 2.636z" fill="url(#paint0_linear)"/><path d="M19.372 5.068c-5.863 0-11.43-.522-13.556 4.936-.879 2.254-.751 5.181-.751 9.373 0 3.678-.118 7.135.75 9.37 2.122 5.461 7.735 4.938 13.554 4.938 5.614 0 11.402.585 13.554-4.937.88-2.277.751-5.16.751-9.371 0-5.59.309-9.199-2.402-11.908-2.745-2.745-6.457-2.401-11.906-2.401h.006zM18.09 7.647c12.23-.02 13.786-1.38 12.927 17.507-.306 6.68-5.392 5.946-11.643 5.946-11.4 0-11.727-.326-11.727-11.73 0-11.536.904-11.717 10.443-11.727v.004zm8.92 2.375a1.717 1.717 0 100 3.433 1.717 1.717 0 000-3.433zm-7.638 2.007a7.348 7.348 0 000 14.694 7.345 7.345 0 007.345-7.346 7.346 7.346 0 00-7.345-7.348zm0 2.578c6.305 0 6.313 9.54 0 9.54-6.303 0-6.313-9.54 0-9.54z" fill="#fff"/></g></symbol><symbol id="instagram" viewBox="0 0 64 64"><g data-name="3-instagram" id="_3-instagram"><rect height="64" rx="11.2" ry="11.2" transform="rotate(180 32 32)" width="64" fill="url(#radial-gradient)"/><path class="cls-2" d="M44 56H20A12 12 0 018 44V20A12 12 0 0120 8h24a12 12 0 0112 12v24a12 12 0 01-12 12zM20 12.8a7.21 7.21 0 00-7.2 7.2v24a7.21 7.21 0 007.2 7.2h24a7.21 7.21 0 007.2-7.2V20a7.21 7.21 0 00-7.2-7.2z"/><path class="cls-2" d="M32 45.6A13.6 13.6 0 1145.6 32 13.61 13.61 0 0132 45.6zm0-22.4a8.8 8.8 0 108.8 8.8 8.81 8.81 0 00-8.8-8.8z"/><circle class="cls-2" cx="45.6" cy="19.2" r="2.4"/></g></symbol><symbol id="menu-button" viewBox="0 0 55 30"><path stroke="currentColor" stroke-width="4" stroke-linecap="square" d="M2 2h51M2 15h51M2 28h51"/></symbol></svg>