<svg xmlns="http://www.w3.org/2000/svg" xmlns:xlink="http://www.w3.org/1999/xlink"><symbol id="close" viewBox="0 0 16 16"><path fill="#fff" d="M8 16A8 8 0 1 1 8 0a8 8 0 0 1 0 16zM8 2a6 6 0 1 0 0 12A6 6 0 0 0 8 2zm1.458 5.977l1.214 1.21a1.036 1.036 0 0 1 0 1.468 1.045 1.045 0 0 1-1.474 0l-1.214-1.21-1.215 1.21a1.045 1.045 0 0 1-1.474 0 1.036 1.036 0 0 1 0-1.468l1.214-1.21-1.213-1.208a1.036 1.036 0 0 1 0-1.469 1.045 1.045 0 0 1 1.475 0l1.213 1.208L9.197 5.3a1.045 1.045 0 0 1 1.474 0 1.036 1.036 0 0 1 0 1.469z"/></symbol><symbol id="comics" viewBox="0 0 19 21"><path fill="currentColor" d="M0 9.8C0 4.387 4.253 0 9.5 0S19 4.387 19 9.8a9.897 9.897 0 0 1-2.956 7.077L17.643 21 8.69 19.516C3.829 19.086 0 14.926 0 9.8zm2.533.026c0 3.75 2.74 6.821 6.375 7.143l.204.027 4.771 1.399-.952-2.011 1.364-1.349a7.272 7.272 0 0 0 2.172-5.21c0-3.98-3.126-7.22-6.967-7.22-3.841 0-6.967 3.24-6.967 7.22z"/><path fill="#575c67" d="M7.281 6.125H9.97c.69 0 1.25.56 1.25 1.25V7.5c0 .69-.56 1.25-1.25 1.25H7.28c-.69 0-1.25-.56-1.25-1.25v-.125c0-.69.56-1.25 1.25-1.25zm0 4.375h4.438c.69 0 1.25.56 1.25 1.25v.125c0 .69-.56 1.25-1.25 1.25H7.28c-.69 0-1.25-.56-1.25-1.25v-.125c0-.69.56-1.25 1.25-1.25z"/></symbol><symbol id="comment" viewBox="0 0 576 512"><path fill="currentColor" d="M532 386.2c27.5-27.1 44-61.1 44-98.2 0-80-76.5-146.1-176.2-157.9C368.3 72.5 294.3 32 208 32 93.1 32 0 103.6 0 192c0 37 16.5 71 44 98.2-15.3 30.7-37.3 54.5-37.7 54.9-6.3 6.7-8.1 16.5-4.4 25 3.6 8.5 12 14 21.2 14 53.5 0 96.7-20.2 125.2-38.8 9.2 2.1 18.7 3.7 28.4 4.9C208.1 407.6 281.8 448 368 448c20.8 0 40.8-2.4 59.8-6.8C456.3 459.7 499.4 480 553 480c9.2 0 17.5-5.5 21.2-14 3.6-8.5 1.9-18.3-4.4-25-.4-.3-22.5-24.1-37.8-54.8zm-392.8-92.3L122.1 305c-14.1 9.1-28.5 16.3-43.1 21.4 2.7-4.7 5.4-9.7 8-14.8l15.5-31.1L77.7 256C64.2 242.6 48 220.7 48 192c0-60.7 73.3-112 160-112s160 51.3 160 112-73.3 112-160 112c-16.5 0-33-1.9-49-5.6l-19.8-4.5zM498.3 352l-24.7 24.4 15.5 31.1c2.6 5.1 5.3 10.1 8 14.8-14.6-5.1-29-12.3-43.1-21.4l-17.1-11.1-19.9 4.6c-16 3.7-32.5 5.6-49 5.6-54 0-102.2-20.1-131.3-49.7C338 339.5 416 272.9 416 192c0-3.4-.4-6.7-.7-10C479.7 196.5 528 238.8 528 288c0 28.7-16.2 50.6-29.7 64z"/></symbol><symbol id="download" viewBox="0 0 14 14"><path fill="currentColor" d="M12.25 14H1.75C.783 14 0 13.164 0 12.133v-2.8C0 8.818.392 8.4.875 8.4s.875.418.875.933V11.2c0 .515.392.933.875.933h8.75c.483 0 .875-.418.875-.933V9.333c0-.515.392-.933.875-.933s.875.418.875.933v2.8C14 13.164 13.216 14 12.25 14zM6.125.933C6.125.418 6.517 0 7 0s.875.418.875.933v6.108l1.118-1.186a.84.84 0 0 1 1.24 0 .976.976 0 0 1 0 1.32L7.754 9.806a.869.869 0 0 1-.714.459.85.85 0 0 1-.705-.269L3.74 7.182a.976.976 0 0 1 0-1.32.84.84 0 0 1 1.24 0l1.145 1.25z"/></symbol><symbol id="edit" viewBox="0 0 12 17"><path fill="#9da0a5" d="M11.708 4.73l-5.29 9.098L4.186 15H9a1 1 0 1 1 0 2H1a.996.996 0 0 1-.436-.1l-.187.1-.013-.227a.998.998 0 0 1-.08-1.47l-.278-5.15 5.289-9.1a2.124 2.124 0 0 1 2.89-.769l2.748 1.576a2.093 2.093 0 0 1 .775 2.87zm-9.341 5.562l.092 3.176 2.656-1.6 4.231-7.28a1.04 1.04 0 0 0 .142-.523L8.76 5.32 6.133 3.813z"/></symbol><symbol id="game" viewBox="0 0 22 22"><path fill="currentColor" d="M5 6.719h3.781v-4.5a1 1 0 0 1 1-1h3.438v-.22a1 1 0 0 1 1-.999h.187a1 1 0 0 1 1 1v1.406a1 1 0 0 1-1 1H11V6.72h6a5 5 0 0 1 5 5V17a5 5 0 0 1-5 5H5a5 5 0 0 1-5-5v-5.281a5 5 0 0 1 5-5zm-2.781 5.687v3.875a3.5 3.5 0 0 0 3.5 3.5H16.28a3.5 3.5 0 0 0 3.5-3.5v-3.875a3.5 3.5 0 0 0-3.5-3.5H5.72a3.5 3.5 0 0 0-3.5 3.5z"/><path fill="#575c67" d="M7.49 12h.02c.46 0 .834.373.834.833v.823h.823c.46 0 .833.373.833.834v.02c0 .46-.373.834-.833.834h-.823v.823c0 .46-.373.833-.834.833h-.02a.833.833 0 0 1-.834-.833v-.823h-.823A.833.833 0 0 1 5 14.51v-.02c0-.46.373-.834.833-.834h.823v-.823c0-.46.373-.833.833-.833zM14.5 13a1.5 1.5 0 1 1 0 3 1.5 1.5 0 0 1 0-3z"/></symbol><symbol id="like" viewBox="0 0 50 50"><path d="M24 12c9.289-9.285 20.084-2.805 20 6-.077 8.05-4.58 9.682-20 24C7.86 28.68 3.916 27.55 4 18c.084-9.886 9.606-14.947 20-6z" fill="currentColor" fill-rule="evenodd"/></symbol><symbol id="more" viewBox="0 0 18 17"><path fill="currentColor" d="M2.25 3.411v10.192c0 .625.504 1.132 1.125 1.132h11.25c.621 0 1.125-.507 1.125-1.132v-3.397H18v4.53A2.257 2.257 0 0 1 15.75 17H2.25A2.257 2.257 0 0 1 0 14.735V2.28A2.257 2.257 0 0 1 2.25.014h5.625V2.28h-4.5c-.621 0-1.125.507-1.125 1.132z"/><path fill="#575c67" d="M17.677 5.288l-3.384 3.44a1.103 1.103 0 0 1-1.578 0 1.148 1.148 0 0 1 0-1.605l1.402-1.425c-1.151-.051-5.728.09-7.43 4.914a1.127 1.127 0 0 1-1.437.688 1.135 1.135 0 0 1-.684-1.447c1.916-5.426 6.9-6.65 9.67-6.43L12.723 1.93a1.147 1.147 0 0 1 0-1.605 1.103 1.103 0 0 1 1.578 0l3.375 3.36c.21.212.327.5.327.802 0 .301-.117.59-.327.802z"/></symbol><symbol id="movie" viewBox="0 0 22 17"><path fill="currentColor" d="M20.625 15.583c-.477 0-2.656-1.197-4.125-2.036v.62C16.5 15.73 15.269 17 13.75 17H4.125c-1.519 0-2.75-1.269-2.75-2.833v-3.25C.615 10.916 0 10.281 0 9.5V5.667C0 4.884.616 4.25 1.375 4.25V2.833C1.375 1.268 2.606 0 4.125 0h9.625c1.519 0 2.75 1.268 2.75 2.833v.614c1.46-.838 3.622-2.03 4.125-2.03.773 0 1.375.634 1.375 1.416v11.334c0 .782-.645 1.416-1.375 1.416zM13.75 4.25c0-.782-.615-1.417-1.375-1.417H5.5c-.76 0-1.375.635-1.375 1.417V5H4a2 2 0 0 0-2 2v1a2 2 0 0 0 2 2h.125v2.75c0 .782.615 1.417 1.375 1.417h6.875c.76 0 1.375-.635 1.375-1.417zm5.5 1.308L16.5 6.662v3.585l2.75 1.107z"/><path fill="#d8232a" d="M5.5 6a1.5 1.5 0 1 1 0 3 1.5 1.5 0 0 1 0-3z"/></symbol><symbol id="play" viewBox="0 0 16 16"><g clip-path="url(#clip-261)"><path fill="currentColor" d="M8 16A8 8 0 1 1 8 0a8 8 0 0 1 0 16zM8 2a6 6 0 1 0 0 12A6 6 0 0 0 8 2zm2.79 6.345l-4.262 2.587c-.298.181-.542.042-.542-.307V5.409c0-.35.244-.49.542-.309l4.262 2.588c.298.18.298.476 0 .657z"/></g></symbol><symbol id="refresh" viewBox="0 0 13 16"><path fill="#fff" d="M12.869 10.472C12.396 13.592 9.755 16 6.499 16A6.497 6.497 0 0 1 0 9.505a6.498 6.498 0 0 1 7.773-6.367L6.31 1.702a1.007 1.007 0 0 1 0-1.416.986.986 0 0 1 1.403 0l3 2.964a1.006 1.006 0 0 1 0 1.416L7.705 7.701a.986.986 0 0 1-1.403 0 1.007 1.007 0 0 1 0-1.416l1.152-1.162a4.46 4.46 0 0 0-.954-.115A4.498 4.498 0 0 0 2 9.505 4.498 4.498 0 0 0 6.5 14c2.314 0 4.198-1.751 4.45-3.996H11a1 1 0 0 1 2 0 .972.972 0 0 1-.131.467z"/></symbol><symbol id="search_icon" viewBox="0 0 15 15"><path fill="currentColor" d="M1.936 1.931a6.577 6.577 0 0 1 9.342 0c2.383 2.398 2.564 6.173.544 8.78l2.94 2.88c.329.322.309.845-.046 1.167-.355.322-.91.321-1.24-.002l-2.883-2.824a6.577 6.577 0 0 1-8.657-.601 6.675 6.675 0 0 1 0-9.4zm1.33 8.146a4.729 4.729 0 0 0 6.514.193.879.879 0 0 1 .307-.3 4.8 4.8 0 0 0-.104-6.65 4.729 4.729 0 0 0-6.717 0 4.8 4.8 0 0 0 0 6.757z"/></symbol><symbol id="star" viewBox="0 -13 550.153 550.153"><path d="M262.576 414.028l162.272 97.963L381.786 327.4l143.367-124.199-188.77-15.995-73.807-174.044-73.806 174.044L0 203.201 143.367 327.4l-43.062 184.591 162.271-97.963z" fill="currentColor" stroke-width="inherit"/></symbol><symbol id="trash" viewBox="0 0 13 15"><path fill="#fff" d="M12.071 5.625h-.928v7.5A1.866 1.866 0 0 1 9.286 15H3.714a1.866 1.866 0 0 1-1.857-1.875v-7.5H.93A.933.933 0 0 1 0 4.687c0-.517.416-.937.929-.937h2.785V.937C3.714.42 4.13 0 4.643 0h3.714c.513 0 .929.42.929.937V3.75h2.785c.513 0 .929.42.929.937a.933.933 0 0 1-.929.938zm-7.428 0a.933.933 0 0 0-.929.937v5.625c0 .518.416.938.929.938.513 0 .928-.42.928-.938V6.562a.933.933 0 0 0-.928-.937zm2.786-2.813a.933.933 0 0 0-.929-.937.933.933 0 0 0-.929.937v.938H7.43zm1.857 3.75a.933.933 0 0 0-.929-.937.933.933 0 0 0-.928.937v5.625c0 .518.415.938.928.938.513 0 .929-.42.929-.938z"/></symbol><symbol id="tv" viewBox="0 0 20 19"><path fill="currentColor" d="M5 0h10a5 5 0 0 1 5 5v5.5a5 5 0 0 1-4.632 4.987l-.825-1.957a3.5 3.5 0 0 0 3.426-3.499V5.47a3.5 3.5 0 0 0-3.5-3.5H5.53a3.5 3.5 0 0 0-3.5 3.5v4.562a3.5 3.5 0 0 0 3.076 3.475l-.972 1.92A5.001 5.001 0 0 1 0 10.5V5a5 5 0 0 1 5-5z"/><path fill="#575c67" d="M14.545 18.162l-9.09.037 4.51-7.17z"/></symbol><symbol id="video" viewBox="0 0 20 20"><path fill="currentColor" d="M10 20C4.477 20 0 15.523 0 10S4.477 0 10 0s10 4.477 10 10-4.477 10-10 10zm0-17.5a7.5 7.5 0 1 0 0 15 7.5 7.5 0 0 0 0-15z"/><path fill="#575c67" d="M13.488 10.431l-5.329 3.235c-.372.226-.676.052-.676-.385V6.76c0-.438.304-.611.676-.386l5.329 3.235c.372.226.372.595 0 .821z"/></symbol></svg>