<svg width="60" height="60" viewBox="0 0 60 60" fill="none" xmlns="http://www.w3.org/2000/svg">
<path d="M58.8501 1.42561C58.1086 0.68414 57.1227 0.275696 56.074 0.275696C55.0253 0.275696 54.0394 0.68414 53.2979 1.42561L43.787 10.9364C42.4515 12.2718 42.2815 14.3379 43.2763 15.8598L42.5738 16.5624C41.6275 17.5087 41.087 18.8188 41.0907 20.157C41.0933 21.0572 40.7296 21.9384 40.0931 22.5749L38.5617 24.1062C37.3702 23.4363 36.0155 22.9397 34.5483 22.6697C30.5352 21.931 26.2962 22.9263 23.4852 25.2672C21.4087 26.9963 20.2652 29.3486 20.2652 31.891V31.9604H0.828767C0.37115 31.9604 0 32.3316 0 32.7892V58.8954C0 59.353 0.37115 59.7242 0.828767 59.7242H40.8859C41.3435 59.7242 41.7146 59.353 41.7146 58.8954V37.0489C42.9302 35.5468 43.6331 33.7649 43.6331 31.8911C43.6331 29.2486 42.237 26.7884 39.9723 25.04L41.2652 23.7472C42.2115 22.8009 42.752 21.4908 42.7482 20.1526C42.7458 19.2524 43.1094 18.3711 43.7459 17.7346L44.4559 17.0247C45.0963 17.4323 45.8295 17.637 46.5632 17.637C47.5685 17.637 48.5739 17.2542 49.3393 16.4889L58.8501 6.97808C59.5916 6.23647 60 5.25065 60 4.20198C60 3.15331 59.5916 2.16722 58.8501 1.42561ZM20.265 33.6181V42.7463C20.265 42.9923 20.3744 43.2257 20.5635 43.3832C20.7135 43.5082 20.9017 43.5751 21.0938 43.5751C21.1437 43.5751 21.1939 43.5705 21.2438 43.5614L22.7911 43.2766V44.8769C22.7911 46.2704 23.9374 47.404 25.3465 47.404C26.7555 47.404 27.9018 46.2702 27.9018 44.8769V42.3358L32.0457 41.573V44.8769C32.0457 46.294 33.1379 47.404 34.532 47.404C35.9261 47.404 37.0183 46.294 37.0183 44.8769V40.4068C38.1465 39.9625 39.1705 39.3757 40.0571 38.6776V48.9502H1.65753V33.618H20.265V33.6181ZM24.4486 42.9714L26.2443 42.6409V44.8769C26.2443 45.3484 25.8331 45.7464 25.3465 45.7464C24.8598 45.7464 24.4486 45.3482 24.4486 44.8769V42.9714ZM33.7032 41.2678L34.5481 41.1122C34.8234 41.0616 35.0937 41.0012 35.3607 40.9349V44.8768C35.3607 45.3725 35.0044 45.7463 34.532 45.7463C34.0596 45.7463 33.7032 45.3724 33.7032 44.8768V41.2678ZM1.65753 58.0668V50.6078H40.0571V58.0668H1.65753ZM41.9756 31.8911C41.9756 35.4654 38.7257 38.658 34.2481 39.4822L21.9227 41.7511V31.8911C21.9227 29.2747 23.3491 27.5376 24.5459 26.5411C26.4485 24.9568 29.124 24.0856 31.8877 24.0856C32.6726 24.0856 33.4648 24.1559 34.2481 24.3001C38.7257 25.1242 41.9756 28.3168 41.9756 31.8911ZM57.6779 5.80579L48.1671 15.3166C47.7387 15.7451 47.169 15.981 46.5631 15.981C46.2539 15.981 45.9546 15.9188 45.6783 15.8018L45.6792 15.801C46.0028 15.4774 46.0028 14.9526 45.6792 14.629C45.3555 14.3053 44.8307 14.3053 44.5072 14.629L44.4957 14.6404C44.1226 13.8063 44.2754 12.7922 44.959 12.1086L54.4699 2.59776C54.8984 2.16929 55.468 1.93337 56.074 1.93337C56.6798 1.93337 57.2496 2.16929 57.6779 2.59776C58.5625 3.4822 58.5625 4.92135 57.6779 5.80579Z" fill="currentColor"/>
<path d="M6.82907 47.4047C8.22333 47.4047 9.35778 46.2704 9.35778 44.876V38.3192C9.35778 36.925 8.22347 35.7905 6.82907 35.7905C5.43466 35.7905 4.30035 36.9248 4.30035 38.3192V44.876C4.30049 46.2704 5.4348 47.4047 6.82907 47.4047ZM5.95803 38.3192C5.95803 37.8388 6.34879 37.4481 6.8292 37.4481C7.30961 37.4481 7.70038 37.8388 7.70038 38.3192V44.876C7.70038 45.3564 7.30961 45.7472 6.8292 45.7472C6.34879 45.7472 5.95803 45.3564 5.95803 44.876V38.3192Z" fill="currentColor"/>
<path d="M16.0572 47.4047C17.4516 47.4047 18.5859 46.2704 18.5859 44.876V38.3192C18.5859 36.925 17.4516 35.7905 16.0572 35.7905C14.6629 35.7905 13.5285 36.9248 13.5285 38.3192V44.876C13.5285 46.2704 14.6628 47.4047 16.0572 47.4047ZM15.186 38.3192C15.186 37.8388 15.5768 37.4481 16.0572 37.4481C16.5376 37.4481 16.9284 37.8388 16.9284 38.3192V44.876C16.9284 45.3564 16.5375 45.7472 16.0572 45.7472C15.5769 45.7472 15.186 45.3564 15.186 44.876V38.3192Z" fill="currentColor"/>
</svg>
