<svg width="60" height="63" viewBox="0 0 60 63" fill="none" xmlns="http://www.w3.org/2000/svg">
<g clip-path="url(#clip0_16:268)">
<path d="M46.0631 50.8326C46.2808 50.6509 46.4203 50.3726 46.4203 50.0604C46.4203 50.0517 46.4203 4.95975 46.4203 4.95975C46.4203 4.41179 45.9918 3.9678 45.4629 3.9678H17.7627C17.0796 1.67269 15.0134 0 12.577 0C10.1798 0 8.08224 1.6551 7.39224 3.9678H4.32433C3.79544 3.9678 3.36688 4.41179 3.36688 4.95975V61.1702C3.36688 61.7182 3.79544 62.1622 4.32433 62.1622H34.7312C35.0408 62.1622 35.3091 62.0177 35.4846 61.7926L46.0631 50.8326ZM35.6969 58.7668V51.0523H43.1429L35.6969 58.7668ZM12.577 1.9839C13.9382 1.9839 15.1202 2.79135 15.7024 3.9678H9.45139C10.0391 2.78434 11.2354 1.9839 12.577 1.9839ZM5.28178 5.9517H16.0876V12.8953C16.0876 13.807 15.3719 14.5486 14.4919 14.5486C13.6119 14.5486 12.8962 13.807 12.8962 12.8953V8.92754C12.8962 8.37959 12.4676 7.9356 11.9387 7.9356C11.4098 7.9356 10.9813 8.37959 10.9813 8.92754V12.8953C10.9813 14.9008 12.5562 16.5325 14.4919 16.5325C16.4276 16.5325 18.0025 14.9008 18.0025 12.8953V5.9517H44.5054V49.0684H34.7395C34.2106 49.0684 33.782 49.5124 33.782 50.0604V60.1783H5.28178V5.9517Z" fill="currentColor"/>
<path d="M37.8033 45.6959C38.3322 45.6959 38.7607 45.2519 38.7607 44.7039C38.7607 44.156 38.3322 43.712 37.8033 43.712H11.9839C11.455 43.712 11.0265 44.156 11.0265 44.7039C11.0265 45.2519 11.455 45.6959 11.9839 45.6959H37.8033Z" fill="currentColor"/>
<path d="M11.9839 39.7441H37.8033C38.3322 39.7441 38.7607 39.3001 38.7607 38.7521C38.7607 38.2042 38.3322 37.7602 37.8033 37.7602H11.9839C11.455 37.7602 11.0265 38.2042 11.0265 38.7521C11.0265 39.3001 11.455 39.7441 11.9839 39.7441Z" fill="currentColor"/>
<path d="M11.9839 33.7924H37.8033C38.3322 33.7924 38.7607 33.3484 38.7607 32.8005C38.7607 32.2525 38.3322 31.8085 37.8033 31.8085H11.9839C11.455 31.8085 11.0265 32.2525 11.0265 32.8005C11.0265 33.3484 11.455 33.7924 11.9839 33.7924Z" fill="currentColor"/>
<path d="M11.9839 27.8408H37.8033C38.3322 27.8408 38.7607 27.3968 38.7607 26.8488C38.7607 26.3009 38.3322 25.8569 37.8033 25.8569H11.9839C11.455 25.8569 11.0265 26.3009 11.0265 26.8488C11.0265 27.3968 11.455 27.8408 11.9839 27.8408Z" fill="currentColor"/>
<path d="M11.9839 21.889H37.8033C38.3322 21.889 38.7607 21.445 38.7607 20.8971C38.7607 20.3491 38.3322 19.9052 37.8033 19.9052H11.9839C11.455 19.9052 11.0265 20.3491 11.0265 20.8971C11.0265 21.445 11.455 21.889 11.9839 21.889Z" fill="currentColor"/>
<path d="M50.5693 3.96783H49.2927C48.7638 3.96783 48.3353 4.41183 48.3353 4.95978C48.3353 5.50774 48.7638 5.95173 49.2927 5.95173H49.6119V60.1783H39.3899C38.861 60.1783 38.4325 60.6223 38.4325 61.1703C38.4325 61.7182 38.861 62.1622 39.3899 62.1622H50.5693C51.0982 62.1622 51.5268 61.7182 51.5268 61.1703V4.95978C51.5268 4.41183 51.0982 3.96783 50.5693 3.96783Z" fill="currentColor"/>
<path d="M55.6756 3.96783H54.399C53.8701 3.96783 53.4416 4.41183 53.4416 4.95978C53.4416 5.50774 53.8701 5.95173 54.399 5.95173H54.7182V60.1783H54.399C53.8701 60.1783 53.4416 60.6223 53.4416 61.1703C53.4416 61.7182 53.8701 62.1622 54.399 62.1622H55.6756C56.2045 62.1622 56.633 61.7182 56.633 61.1703V4.95978C56.633 4.41183 56.2045 3.96783 55.6756 3.96783Z" fill="currentColor"/>
</g>
<defs>
<clipPath id="clip0_16:268">
<rect width="60" height="62.1622" fill="white"/>
</clipPath>
</defs>
</svg>
