<svg width="62" height="55" viewBox="0 0 62 55" fill="none" xmlns="http://www.w3.org/2000/svg">
<path d="M7.40338 22.9296V53.7715C7.40338 54.4497 7.89982 55 8.5123 55H52.9371C53.5501 55 54.0461 54.4499 54.0461 53.7715V22.9219L60.2274 28.0268C60.4266 28.1906 60.6585 28.2699 60.8903 28.2699C61.2283 28.2699 61.5619 28.0988 61.7805 27.7749C62.1459 27.2311 62.0448 26.4613 61.5539 26.0559L53.8819 19.7202C53.7353 19.4547 53.5013 19.2582 53.2234 19.1754L30.2905 0.239238C30.2692 0.221945 30.2462 0.210261 30.2243 0.194837C30.1903 0.170534 30.1561 0.144828 30.1198 0.126133C30.088 0.10884 30.0555 0.0957539 30.0224 0.0822C29.9884 0.0674777 29.9548 0.0525216 29.9194 0.0417719C29.8848 0.031256 29.8494 0.0244787 29.8129 0.0188702C29.7783 0.0125606 29.7437 0.00484905 29.7078 0.00157742C29.6732 -0.000759455 29.6392 -5.84523e-05 29.6046 0.000876299C29.5675 0.00157736 29.5306 0.0015774 29.4947 0.00648484C29.4612 0.0109249 29.4287 0.019805 29.3962 0.0268157C29.3595 0.0359295 29.323 0.0443426 29.2867 0.0562606C29.2535 0.0686461 29.2208 0.0852376 29.1886 0.100661C29.1561 0.116318 29.1232 0.131041 29.0915 0.15067C29.0569 0.171936 29.0244 0.199044 28.9911 0.224282C28.9694 0.241575 28.9468 0.253025 28.9261 0.271954L19.8395 8.4987V5.3542C19.8395 4.6751 19.3431 4.1257 18.7306 4.1257H12.2916C11.6785 4.1257 11.1825 4.6751 11.1825 5.3542V16.3364L0.407206 26.0905C-0.0675041 26.5195 -0.136917 27.2935 0.250446 27.8193C0.470079 28.1166 0.788662 28.2699 1.11041 28.2699C1.35663 28.2699 1.60495 28.1794 1.81108 27.9932L7.40338 22.9296ZM13.4005 6.58246H17.6215V10.5065L13.4005 14.3278V6.58246ZM9.62165 20.9215L29.6595 2.78176L51.8284 21.0903V52.5423H9.62165V20.9215Z" fill="currentColor"/>
<path d="M40.1909 37.0629L26.6614 22.0793C26.7964 20.1787 26.1888 18.341 24.9643 16.9846C23.857 15.7571 22.3835 15.0817 20.8166 15.0817C20.2317 15.0817 19.6524 15.1773 19.0939 15.3678C18.8462 15.4521 18.6563 15.6741 18.5935 15.9522C18.5306 16.2303 18.6046 16.5264 18.7876 16.7295L21.3561 19.5748L18.9998 22.1847L16.4305 19.3398C16.2463 19.1369 15.9811 19.0542 15.7289 19.1248C15.4766 19.1944 15.2762 19.4047 15.2013 19.6798C14.5631 21.987 15.1236 24.4781 16.6619 26.1807C17.8746 27.5226 19.5389 28.2075 21.2615 28.0603L34.7884 43.0455C34.6549 44.9473 35.2627 46.7833 36.486 48.138C37.5949 49.3647 39.0678 50.0414 40.6346 50.0414C41.2194 50.0414 41.7985 49.9456 42.3557 49.7568C42.6043 49.672 42.7942 49.4511 42.8568 49.1721C42.9197 48.8931 42.8461 48.5986 42.6627 48.3956L39.8288 45.2574L42.1855 42.6457L45.0179 45.7853C45.2013 45.9883 45.4686 46.0701 45.7203 46.0005C45.9724 45.9309 46.173 45.7208 46.2482 45.4455C46.8843 43.1359 46.3254 40.6448 44.7875 38.9431C43.5771 37.601 41.9108 36.9205 40.1909 37.0629ZM42.7108 40.9082C42.5716 40.7537 42.3838 40.6682 42.1874 40.6682C41.991 40.6682 41.8028 40.7537 41.6646 40.9082L38.261 44.6787C38.1224 44.8323 38.0445 45.0403 38.0445 45.2578C38.0445 45.474 38.1224 45.6834 38.261 45.8371L40.5786 48.4026C39.4277 48.3867 38.3469 47.8828 37.531 46.9808C36.5506 45.8939 36.0993 44.3904 36.2936 42.8574C36.3252 42.6029 36.2489 42.3461 36.0843 42.1647L22.0569 26.6259C21.9171 26.4707 21.7284 26.3859 21.5341 26.3859C21.4999 26.3859 21.4651 26.3882 21.4305 26.3939C20.0627 26.6119 18.68 26.1008 17.7071 25.0223C16.883 24.1107 16.4349 22.8955 16.4216 21.646L18.4768 23.9224C18.766 24.2428 19.2331 24.2428 19.5224 23.9224L22.9243 20.1544C23.2135 19.8354 23.2135 19.3166 22.9243 18.9965L20.8706 16.7208C22.0221 16.7365 23.1034 17.2398 23.9189 18.144C24.9003 19.2316 25.3518 20.7351 25.1556 22.2674C25.1231 22.5221 25.2008 22.7792 25.3647 22.9612L39.3942 38.4989C39.5581 38.6812 39.7915 38.7646 40.0195 38.7307C41.3869 38.5164 42.7697 39.0251 43.743 40.1006C44.566 41.0122 45.0135 42.2271 45.0274 43.4778L42.7108 40.9082Z" fill="currentColor"/>
</svg>
