<svg width="60" height="60" viewBox="0 0 60 60" fill="none" xmlns="http://www.w3.org/2000/svg">
<g clip-path="url(#clip0_16:278)">
<path d="M45.9758 26.4927C45.9758 24.5932 44.4306 23.0481 42.5311 23.0481H36.2004C37.7385 21.3192 38.7437 19.3506 38.9379 17.5844C39.0565 16.5057 38.7232 15.435 38.0233 14.6467C37.3835 13.9261 36.5087 13.5245 35.56 13.5157C35.549 13.5156 35.538 13.5156 35.5271 13.5156C34.6094 13.5156 33.748 13.869 33.098 14.5131C32.4478 15.1572 32.0881 16.0154 32.0839 16.9312C32.0505 17.1317 31.6977 17.823 30.8346 18.6438C30.128 19.316 28.9074 20.24 27.1051 20.8251C26.3985 21.0546 25.7527 21.4771 25.1857 22.0808C24.8882 22.3974 24.4426 22.8348 23.891 23.2738C23.6203 23.1303 23.3125 23.0483 22.9854 23.0483H16.9729C15.9022 23.0483 15.0313 23.9192 15.0313 24.9899V41.0232C15.0313 42.0939 15.9022 42.9648 16.9729 42.9648H22.9854C23.7153 42.9648 24.3517 42.5596 24.6833 41.9627H40.0259C41.649 41.9627 42.9695 40.6423 42.9695 39.0191C42.9695 38.4734 42.8203 37.9619 42.5604 37.5232C43.4062 37.0055 43.9716 36.0729 43.9716 35.0107C43.9716 34.465 43.8224 33.9535 43.5625 33.5148C44.4082 32.9971 44.9737 32.0645 44.9737 31.0023C44.9737 30.388 44.7845 29.8171 44.4614 29.3446C45.3747 28.7243 45.9758 27.6773 45.9758 26.4927ZM42.5311 28.0584H42.03C41.5112 28.0584 41.0905 28.479 41.0905 28.9979C41.0905 29.5167 41.5111 29.9374 42.03 29.9374C42.6171 29.9374 43.0948 30.4151 43.0948 31.0022C43.0948 31.5893 42.6171 32.0669 42.03 32.0669H41.028C40.5092 32.0669 40.0885 32.4875 40.0885 33.0064C40.0885 33.5252 40.509 33.9459 41.028 33.9459C41.6151 33.9459 42.0927 34.4236 42.0927 35.0107C42.0927 35.5978 41.6151 36.0755 41.028 36.0755H40.0259C39.5071 36.0755 39.0864 36.496 39.0864 37.015C39.0864 37.5337 39.507 37.9544 40.0259 37.9544C40.613 37.9544 41.0906 38.4321 41.0906 39.0192C41.0906 39.6063 40.613 40.084 40.0259 40.084H24.927V31.0025C24.927 30.4837 24.5064 30.063 23.9875 30.063C23.4686 30.063 23.048 30.4836 23.048 31.0025V41.0234C23.048 41.0579 23.02 41.0859 22.9854 41.0859H16.9729C16.9383 41.0859 16.9103 41.0579 16.9103 41.0234V24.9895C16.9103 24.9549 16.9383 24.9269 16.9729 24.9269H22.9854C23.02 24.9269 23.048 24.9549 23.048 24.9895V26.9938C23.048 27.5126 23.4686 27.9333 23.9875 27.9333C24.5064 27.9333 24.927 27.5127 24.927 26.9938V24.9895C24.927 24.9439 24.9232 24.8993 24.9201 24.8545C25.6245 24.3092 26.1878 23.758 26.5553 23.3668C26.903 22.9964 27.2831 22.7426 27.6852 22.6121C29.8965 21.8942 31.3847 20.7383 32.2436 19.895C33.3201 18.8381 33.9626 17.7363 33.9626 16.9475C33.9626 16.5308 34.1251 16.1402 34.4203 15.8477C34.7192 15.5516 35.1149 15.3951 35.5425 15.3945C36.0692 15.3995 36.4179 15.6689 36.618 15.8941C36.9608 16.2803 37.1296 16.8355 37.0699 17.3791C36.8647 19.2458 35.3719 21.5532 33.2667 23.2574C32.9575 23.5078 32.8395 23.9259 32.9722 24.301C33.105 24.6762 33.4599 24.9269 33.8578 24.9269H42.5309C43.3943 24.9269 44.0966 25.6292 44.0966 26.4927C44.0966 27.3561 43.3944 28.0584 42.5311 28.0584Z" fill="currentColor"/>
<path d="M19.9792 37.0671C19.4604 37.0671 19.0348 37.4927 19.0348 38.0115C19.0348 38.5303 19.4604 38.9559 19.9792 38.9559C20.498 38.9559 20.9236 38.5303 20.9236 38.0115C20.9238 37.4928 20.4981 37.0671 19.9792 37.0671Z" fill="currentColor"/>
<path d="M58.3251 30.0003L59.939 25.7297C60.0566 25.419 60.0011 25.0694 59.7934 24.8101L56.9388 21.2471L57.154 16.6868C57.1697 16.3551 57.0089 16.0395 56.7314 15.8573L52.9155 13.3508L51.7111 8.94712C51.6234 8.62673 51.3731 8.37641 51.0528 8.28888L46.6492 7.08442L44.1426 3.26868C43.9603 2.99106 43.6448 2.83099 43.3132 2.8461L38.7528 3.06126L35.1899 0.20669C34.9306 -0.000966679 34.5811 -0.0563964 34.2703 0.0610255L29.9996 1.67493L25.7292 0.0611427C25.4183 -0.0563964 25.0688 -0.000966693 24.8096 0.206807L21.2466 3.06138L16.6863 2.84622C16.353 2.83052 16.0391 2.9913 15.8568 3.2688L13.3504 7.08466L8.94676 8.28911C8.62637 8.37677 8.37606 8.62708 8.28852 8.94735L7.08407 13.351L3.26821 15.8574C2.99059 16.0398 2.82993 16.3552 2.84563 16.6869L3.06079 21.2472L0.206215 24.8102C-0.00144125 25.0694 -0.0568709 25.419 0.060551 25.7298L1.67434 30.0003L0.0604338 34.2709C-0.0571053 34.5815 -0.00167562 34.9311 0.206098 35.1904L3.06067 38.7534L2.84551 43.3138C2.82981 43.6454 2.99059 43.961 3.26809 44.1432L7.08395 46.6497L8.2884 51.0534C8.37606 51.3738 8.62637 51.6241 8.94665 51.7116L13.3503 52.9161L15.8567 56.732C16.0391 57.0096 16.3551 57.1692 16.6862 57.1545L21.2465 56.9394L24.8095 59.7939C25.0687 60.0017 25.4184 60.0572 25.7291 59.9396L29.9997 58.3257L34.2704 59.9396C34.3782 59.9803 34.4906 60.0002 34.6024 60.0002C34.8129 60.0002 35.0206 59.9295 35.1899 59.7939L38.7528 56.9394L43.3132 57.1545C43.6459 57.1693 43.9603 57.0095 44.1426 56.732L46.6492 52.9161L51.0528 51.7116C51.3732 51.624 51.6235 51.3737 51.7111 51.0534L52.9155 46.6497L56.7314 44.1432C57.009 43.9609 57.1697 43.6454 57.154 43.3138L56.9388 38.7534L59.7934 35.1904C60.001 34.9312 60.0565 34.5816 59.939 34.2709L58.3251 30.0003ZM56.442 30.3324L57.992 34.4339L55.2505 37.8556C55.1074 38.0341 55.0344 38.2588 55.0452 38.4873L55.2519 42.8669L51.5873 45.2741C51.3962 45.3996 51.2572 45.5907 51.1968 45.8115L50.0401 50.0407L45.8109 51.1974C45.5902 51.2578 45.3992 51.3966 45.2735 51.5879L42.8663 55.2525L38.4867 55.0457C38.2581 55.0352 38.0335 55.108 37.855 55.2511L34.4333 57.9925L30.3318 56.4426C30.2249 56.4022 30.1122 56.382 29.9997 56.382C29.8872 56.382 29.7746 56.4023 29.6676 56.4426L25.5662 57.9925L22.1444 55.2511C21.9659 55.108 21.7409 55.0352 21.5128 55.0457L17.1331 55.2525L14.726 51.5879C14.6005 51.3968 14.4093 51.2578 14.1886 51.1974L9.95938 50.0407L8.80262 45.8115C8.74227 45.5908 8.6034 45.3998 8.41215 45.2741L4.74758 42.8669L4.9543 38.4873C4.96508 38.2586 4.89208 38.0341 4.74899 37.8556L2.0075 34.4339L3.55754 30.3324C3.6384 30.1184 3.6384 29.8822 3.55754 29.6682L2.0075 25.5668L4.74899 22.145C4.89208 21.9665 4.96508 21.7419 4.9543 21.5134L4.74758 17.1337L8.41215 14.7266C8.60329 14.6011 8.74227 14.4099 8.80262 14.1891L9.95938 9.95997L14.1886 8.80321C14.4092 8.74286 14.6002 8.60399 14.726 8.41274L17.1331 4.74817L21.5128 4.95489C21.7411 4.96556 21.9659 4.89267 22.1444 4.74958L25.5662 2.0081L29.6676 3.55813C29.8817 3.63899 30.1179 3.63899 30.3318 3.55813L34.4333 2.0081L37.855 4.74958C38.0335 4.89278 38.2583 4.96567 38.4867 4.95489L42.8663 4.74817L45.2735 8.41274C45.399 8.60388 45.5901 8.74286 45.8109 8.80321L50.0401 9.95997L51.1968 14.1891C51.2572 14.4098 51.3961 14.6008 51.5873 14.7266L55.2519 17.1337L55.0452 21.5134C55.0344 21.742 55.1074 21.9665 55.2505 22.145L57.992 25.5668L56.4419 29.6682C56.3612 29.8823 56.3612 30.1184 56.442 30.3324Z" fill="currentColor"/>
<path d="M47.6524 13.7782C47.4186 13.5237 47.1761 13.2705 46.9313 13.0259C46.6865 12.7812 46.4335 12.5386 46.179 12.3048C45.7968 11.9539 45.2026 11.9792 44.8516 12.3615C44.5008 12.7437 44.5261 13.338 44.9083 13.6889C45.1431 13.9045 45.3767 14.1284 45.6027 14.3543C45.8285 14.5801 46.0524 14.8139 46.2682 15.0487C46.4534 15.2505 46.7066 15.3528 46.9605 15.3528C47.1875 15.3528 47.4152 15.2711 47.5956 15.1055C47.9778 14.7547 48.0032 14.1603 47.6524 13.7782Z" fill="currentColor"/>
<path d="M42.8428 9.74127C38.3123 6.85494 32.8577 5.57221 27.4843 6.1285C22.0322 6.69334 16.8911 9.14279 13.008 13.0258C8.73454 17.2993 6.24642 22.9763 6.00196 29.0111C5.75903 35.0104 7.74607 40.8351 11.5972 45.412C11.7829 45.6328 12.0487 45.7465 12.3166 45.7465C12.5301 45.7465 12.7448 45.6741 12.9209 45.526C13.3179 45.1919 13.369 44.5993 13.035 44.2024C9.48642 39.9849 7.65548 34.617 7.87931 29.0873C8.10454 23.5253 10.3977 18.2931 14.3365 14.3545C17.9154 10.7754 22.6535 8.51783 27.6778 7.9974C32.6319 7.48412 37.6588 8.66643 41.8331 11.3259C42.2708 11.6047 42.8513 11.476 43.1301 11.0384C43.409 10.6007 43.2802 10.0201 42.8428 9.74127Z" fill="currentColor"/>
<path d="M50.2161 17.1144C49.9373 16.6767 49.3563 16.548 48.919 16.8268C48.4813 17.1056 48.3527 17.6864 48.6315 18.1239C51.291 22.2983 52.473 27.3254 51.96 32.2792C51.4395 37.3035 49.1819 42.0415 45.603 45.6206C41.6642 49.5593 36.432 51.8525 30.8702 52.0778C25.3414 52.3025 19.9725 50.4708 15.7551 46.9223C15.3582 46.5882 14.7656 46.6393 14.4315 47.0364C14.0974 47.4333 14.1485 48.0259 14.5455 48.36C18.8722 52.0004 24.3132 53.9753 29.9634 53.9752C30.2902 53.9752 30.6184 53.9685 30.9465 53.9552C36.9813 53.7109 42.6582 51.2228 46.9318 46.9493C50.8149 43.0662 53.2645 37.925 53.8291 32.4729C54.3855 27.0991 53.1024 21.6448 50.2161 17.1144Z" fill="currentColor"/>
</g>
<defs>
<clipPath id="clip0_16:278">
<rect width="60" height="60" fill="white"/>
</clipPath>
</defs>
</svg>
