<svg width="130" height="131" viewBox="0 0 130 131" fill="none" xmlns="http://www.w3.org/2000/svg">
<path d="M26.9744 61.6657L4.54272 38.3011L36.9156 39.3423L37.4674 39.36L37.4305 38.8091L35.2654 6.492L59.3951 28.0985L59.8065 28.4668L60.1323 28.0211L79.2468 1.87297L83.8429 33.9348L83.9212 34.4814L84.4573 34.3493L115.908 26.6053L98.8194 54.1204L98.5281 54.5894L99.0237 54.8329L128.094 69.1164L97.317 79.2102L96.7924 79.3822L97.0155 79.8873L110.103 109.515L80.0388 97.4644L79.5263 97.2589L79.3725 97.7893L70.354 128.898L55.0693 100.342L54.8087 99.8548L54.3501 100.162L27.4452 118.196L34.0921 86.4957L34.2054 85.9553L33.6564 85.896L1.45428 82.4164L26.9226 62.4052L27.3568 62.064L26.9744 61.6657Z" stroke="currentColor"/>
</svg>
