<svg xmlns="http://www.w3.org/2000/svg" xmlns:xlink="http://www.w3.org/1999/xlink"><defs><style>
    .sprite-symbol-usage {display: none;}
    .sprite-symbol-usage:target {display: inline;}
  </style><symbol aria-hidden="true" class="svg-inline--fa fa-comments fa-w-18" role="img" viewBox="0 0 576 512" id="comment"><path fill="currentColor" d="M532 386.2c27.5-27.1 44-61.1 44-98.2 0-80-76.5-146.1-176.2-157.9C368.3 72.5 294.3 32 208 32 93.1 32 0 103.6 0 192c0 37 16.5 71 44 98.2-15.3 30.7-37.3 54.5-37.7 54.9-6.3 6.7-8.1 16.5-4.4 25 3.6 8.5 12 14 21.2 14 53.5 0 96.7-20.2 125.2-38.8 9.2 2.1 18.7 3.7 28.4 4.9C208.1 407.6 281.8 448 368 448c20.8 0 40.8-2.4 59.8-6.8C456.3 459.7 499.4 480 553 480c9.2 0 17.5-5.5 21.2-14 3.6-8.5 1.9-18.3-4.4-25-.4-.3-22.5-24.1-37.8-54.8zm-392.8-92.3L122.1 305c-14.1 9.1-28.5 16.3-43.1 21.4 2.7-4.7 5.4-9.7 8-14.8l15.5-31.1L77.7 256C64.2 242.6 48 220.7 48 192c0-60.7 73.3-112 160-112s160 51.3 160 112-73.3 112-160 112c-16.5 0-33-1.9-49-5.6l-19.8-4.5zM498.3 352l-24.7 24.4 15.5 31.1c2.6 5.1 5.3 10.1 8 14.8-14.6-5.1-29-12.3-43.1-21.4l-17.1-11.1-19.9 4.6c-16 3.7-32.5 5.6-49 5.6-54 0-102.2-20.1-131.3-49.7C338 339.5 416 272.9 416 192c0-3.4-.4-6.7-.7-10C479.7 196.5 528 238.8 528 288c0 28.7-16.2 50.6-29.7 64z" /></symbol><symbol viewBox="0 0 14 14" id="download"><g><g><path fill="currentColor" d="M12.25 14H1.75C.783 14 0 13.164 0 12.133v-2.8C0 8.818.392 8.4.875 8.4s.875.418.875.933V11.2c0 .515.392.933.875.933h8.75c.483 0 .875-.418.875-.933V9.333c0-.515.392-.933.875-.933s.875.418.875.933v2.8C14 13.164 13.216 14 12.25 14zM6.125.933C6.125.418 6.517 0 7 0s.875.418.875.933v6.108l1.118-1.186a.84.84 0 0 1 1.24 0 .976.976 0 0 1 0 1.32L7.754 9.806a.869.869 0 0 1-.714.459.85.85 0 0 1-.705-.269L3.74 7.182a.976.976 0 0 1 0-1.32.84.84 0 0 1 1.24 0l1.145 1.25z" /></g></g></symbol><symbol id="sprite"><defs><style>
    #sprite .sprite-symbol-usage {display: none;}
    #sprite .sprite-symbol-usage:target {display: inline;}
  </style><symbol aria-hidden="true" class="svg-inline--fa fa-comments fa-w-18" role="img" viewBox="0 0 576 512" id="sprite_comment"><path fill="currentColor" d="M532 386.2c27.5-27.1 44-61.1 44-98.2 0-80-76.5-146.1-176.2-157.9C368.3 72.5 294.3 32 208 32 93.1 32 0 103.6 0 192c0 37 16.5 71 44 98.2-15.3 30.7-37.3 54.5-37.7 54.9-6.3 6.7-8.1 16.5-4.4 25 3.6 8.5 12 14 21.2 14 53.5 0 96.7-20.2 125.2-38.8 9.2 2.1 18.7 3.7 28.4 4.9C208.1 407.6 281.8 448 368 448c20.8 0 40.8-2.4 59.8-6.8C456.3 459.7 499.4 480 553 480c9.2 0 17.5-5.5 21.2-14 3.6-8.5 1.9-18.3-4.4-25-.4-.3-22.5-24.1-37.8-54.8zm-392.8-92.3L122.1 305c-14.1 9.1-28.5 16.3-43.1 21.4 2.7-4.7 5.4-9.7 8-14.8l15.5-31.1L77.7 256C64.2 242.6 48 220.7 48 192c0-60.7 73.3-112 160-112s160 51.3 160 112-73.3 112-160 112c-16.5 0-33-1.9-49-5.6l-19.8-4.5zM498.3 352l-24.7 24.4 15.5 31.1c2.6 5.1 5.3 10.1 8 14.8-14.6-5.1-29-12.3-43.1-21.4l-17.1-11.1-19.9 4.6c-16 3.7-32.5 5.6-49 5.6-54 0-102.2-20.1-131.3-49.7C338 339.5 416 272.9 416 192c0-3.4-.4-6.7-.7-10C479.7 196.5 528 238.8 528 288c0 28.7-16.2 50.6-29.7 64z" /></symbol><symbol viewBox="0 0 14 14" id="sprite_download"><g><g><path fill="currentColor" d="M12.25 14H1.75C.783 14 0 13.164 0 12.133v-2.8C0 8.818.392 8.4.875 8.4s.875.418.875.933V11.2c0 .515.392.933.875.933h8.75c.483 0 .875-.418.875-.933V9.333c0-.515.392-.933.875-.933s.875.418.875.933v2.8C14 13.164 13.216 14 12.25 14zM6.125.933C6.125.418 6.517 0 7 0s.875.418.875.933v6.108l1.118-1.186a.84.84 0 0 1 1.24 0 .976.976 0 0 1 0 1.32L7.754 9.806a.869.869 0 0 1-.714.459.85.85 0 0 1-.705-.269L3.74 7.182a.976.976 0 0 1 0-1.32.84.84 0 0 1 1.24 0l1.145 1.25z" /></g></g></symbol></defs><use id="sprite_comment-usage" xlink:href="#sprite_comment" class="sprite-symbol-usage" /><use id="sprite_download-usage" xlink:href="#sprite_download" class="sprite-symbol-usage" /></symbol></defs><use id="comment-usage" xlink:href="#comment" class="sprite-symbol-usage" /><use id="download-usage" xlink:href="#download" class="sprite-symbol-usage" /><use id="sprite-usage" xlink:href="#sprite" class="sprite-symbol-usage" /></svg>