<svg xmlns="http://www.w3.org/2000/svg" xmlns:xlink="http://www.w3.org/1999/xlink"><symbol id="download" viewBox="0 0 512 512"><path d="M448.608 351.791c-18.444 0-33.4 14.952-33.4 33.396v52.055H96.788v-52.055c0-18.443-14.952-33.396-33.396-33.396s-33.396 14.952-33.396 33.396v85.451c0 18.443 14.952 33.4 33.396 33.4h385.217c18.443 0 33.396-14.957 33.396-33.4v-85.451c0-18.444-14.953-33.396-33.397-33.396z"/><path d="M245.918 387.325c5.563 5.559 14.6 5.559 20.157 0l117.039-117.038a11.93 11.93 0 0 0 2.579-13 11.907 11.907 0 0 0-11.012-7.351h-54.954V34.024c0-14.402-11.661-26.063-26.06-26.063h-75.323c-14.398 0-26.06 11.66-26.06 26.063v215.912h-54.973c-4.827 0-9.163 2.9-11.007 7.351a11.937 11.937 0 0 0 2.575 13l117.039 117.038z"/></symbol><symbol id="email" viewBox="0 0 612 612"><path d="M306.768 346.814h.131c4.615 0 9.176-1.339 12.866-3.777l1.001-.643c.218-.142.446-.271.675-.424l11.658-9.645 278.259-229.624c-.576-.795-1.557-1.339-2.602-1.339H3.233c-.751 0-1.448.272-2.003.729l291.125 239.954c3.669 3.038 8.904 4.769 14.413 4.769zM0 133.899v340.37l208.55-168.471L0 133.899zm403.668 173.042L612 474.356V135.031l-208.332 171.91zm-66.237 54.644c-8.305 6.814-19.168 10.57-30.576 10.57-11.451 0-22.304-3.734-30.587-10.516l-47.765-39.394L0 506.806v.587c0 1.753 1.502 3.244 3.276 3.244h605.491c1.741 0 3.232-1.491 3.232-3.255v-.544L383.693 323.4l-46.262 38.185z"/></symbol><symbol id="facebook" viewBox="0 0 90 90"><path d="M90 15.001C90 7.119 82.884 0 75 0H15C7.116 0 0 7.119 0 15.001v59.998C0 82.881 7.116 90 15.001 90H45V56H34V41h11v-5.844C45 25.077 52.568 16 61.875 16H74v15H61.875C60.548 31 59 32.611 59 35.024V41h15v15H59v34h16c7.884 0 15-7.119 15-15.001V15.001z"/></symbol><symbol id="home" viewBox="0 0 26.39 26.39"><path d="M3.588 24.297s-.024.59.553.59l6.652-.008.01-5.451s-.094-.898.777-.898h2.761c1.031 0 .968.898.968.898l-.012 5.434h6.512c.732 0 .699-.734.699-.734V14.076L13.33 5.913l-9.742 8.164v10.22z"/><path d="M0 13.317s.826 1.524 2.631 0l10.781-9.121 10.107 9.064c2.088 1.506 2.871 0 2.871 0L13.412 1.504 0 13.317zM23.273 4.175h-2.599l.011 3.153 2.588 2.197z"/></symbol><symbol id="location" viewBox="0 0 430.114 430.114"><path d="M356.208 107.051c-1.531-5.738-4.64-11.852-6.94-17.205C321.746 23.704 261.611 0 213.055 0 148.054 0 76.463 43.586 66.905 133.427v18.355c0 .766.264 7.647.639 11.089 5.358 42.816 39.143 88.32 64.375 131.136 27.146 45.873 55.314 90.999 83.221 136.106 17.208-29.436 34.354-59.259 51.17-87.933 4.583-8.415 9.903-16.825 14.491-24.857 3.058-5.348 8.9-10.696 11.569-15.672 27.145-49.699 70.838-99.782 70.838-149.104v-20.262c.001-5.347-6.627-24.081-7-25.234zm-141.963 92.142c-19.107 0-40.021-9.554-50.344-35.939-1.538-4.2-1.414-12.617-1.414-13.388v-11.852c0-33.636 28.56-48.932 53.406-48.932 30.588 0 54.245 24.472 54.245 55.06 0 30.587-25.305 55.051-55.893 55.051z"/></symbol><symbol id="portfolio" viewBox="0 0 50.244 50.244"><path d="M27.587 29.787V28.67a2.464 2.464 0 0 0-4.927 0v1.117a2.464 2.464 0 0 0 4.927 0z"/><path d="M29.276 31.149c-.545 1.787-2.19 3.1-4.152 3.1-1.963 0-3.608-1.312-4.154-3.1H4.001a6.942 6.942 0 0 1-2.991-.681v11.267c0 2.2 1.8 4 4 4h40.226c2.2 0 4-1.8 4-4V30.469a6.94 6.94 0 0 1-2.99.681l-16.97-.001zM46.078 10.917h-9.602c-.579-3.626-3.722-6.408-7.508-6.408h-7.694c-3.787 0-6.927 2.782-7.508 6.408h-9.6c-2.292 0-4.167 1.8-4.167 4v9.233a4 4 0 0 0 4 4h16.78a4.344 4.344 0 0 1 1.332-2.933c.024-.022.052-.041.077-.063.173-.159.353-.309.55-.439.07-.047.15-.079.223-.121.162-.093.322-.19.497-.262.137-.057.285-.09.429-.133.124-.037.242-.086.371-.112a4.328 4.328 0 0 1 1.727 0c.128.026.247.075.372.112.144.043.29.076.429.134.174.072.333.168.495.261.073.043.153.075.225.122.197.129.376.279.549.438.025.023.056.041.078.065a4.338 4.338 0 0 1 1.332 2.933h16.78a4 4 0 0 0 4-4v-9.233c0-2.202-1.875-4.002-4.167-4.002zm-28.459 0c.51-1.541 1.947-2.664 3.657-2.664h7.694c1.709 0 3.146 1.123 3.656 2.664H17.619z"/></symbol><symbol id="smartphone" viewBox="0 0 35 35"><path d="M25.302 0H9.698a2.37 2.37 0 0 0-2.364 2.364v30.271A2.371 2.371 0 0 0 9.698 35h15.604a2.37 2.37 0 0 0 2.364-2.364V2.364A2.37 2.37 0 0 0 25.302 0zM15.004 1.704h4.992a.286.286 0 0 1 0 .573h-4.992a.286.286 0 1 1 0-.573zM17.5 33.818a1.182 1.182 0 1 1 0-2.364 1.182 1.182 0 0 1 0 2.364zm8.521-3.193H8.979V3.749h17.042v26.876z"/></symbol><symbol id="telegram" viewBox="0 0 300 300"><path d="M5.299 144.645l69.126 25.8 26.756 86.047c1.712 5.511 8.451 7.548 12.924 3.891l38.532-31.412a11.496 11.496 0 0 1 14.013-.391l69.498 50.457c4.785 3.478 11.564.856 12.764-4.926L299.823 29.22c1.31-6.316-4.896-11.585-10.91-9.259L5.218 129.402c-7.001 2.7-6.94 12.612.081 15.243zm91.57 12.066l135.098-83.207c2.428-1.491 4.926 1.792 2.841 3.726L123.313 180.87a23.112 23.112 0 0 0-7.163 13.829l-3.798 28.146c-.503 3.758-5.782 4.131-6.819.494l-14.607-51.325c-1.673-5.854.765-12.107 5.943-15.303z"/></symbol><symbol id="viber" viewBox="-21 0 511 512"><path d="M251.906 289.27c-5.855 5.859-15.351 5.859-21.21 0l-68.165-68.165a15.003 15.003 0 0 1-4.394-10.605c0-3.98 1.582-7.793 4.394-10.61l12.117-12.113-35.59-35.59-29.156 29.157c-9.812 9.812-9.808 25.777 0 35.59l124.965 124.972c4.723 4.723 11.043 7.32 17.797 7.32 6.754 0 13.074-2.601 17.797-7.324l29.156-29.152-35.59-35.594zm0 0"/><path d="M468.984 180.71c0-48.089-18.843-93.417-53.07-127.64C381.691 18.848 336.364 0 288.277 0H181.203h-.004C133.117 0 87.79 18.848 53.57 53.066 19.348 87.29.5 132.621.5 180.707v84.164c0 37.238 11.36 73.063 32.852 103.598 18.96 26.937 44.46 47.976 74.191 61.32v48.344c0 24.996 13.996 33.863 25.98 33.867 8.563 0 17.13-4.227 25.465-12.559l53.856-53.863h75.437c48.086 0 93.414-18.848 127.637-53.07 34.223-34.223 53.07-79.551 53.07-127.637zM331.438 323.356l-39.766 39.762c-10.39 10.39-24.242 16.106-39.008 16.106-14.766 0-28.617-5.72-39.008-16.106L88.687 238.145c-21.503-21.512-21.503-56.508 0-78.016l39.766-39.762a14.98 14.98 0 0 1 10.606-4.394c3.976 0 7.793 1.578 10.605 4.394l56.805 56.805a14.999 14.999 0 0 1-.004 21.21l-12.113 12.114 46.953 46.953 12.117-12.117c5.86-5.855 15.355-5.855 21.21.004l56.805 56.805a14.986 14.986 0 0 1 4.395 10.605c0 3.98-1.578 7.797-4.395 10.61zM223.382 145.621c0-8.281 6.715-15 15-15 51.972 0 94.258 42.281 94.258 94.25 0 8.285-6.715 15-15 15-8.282 0-15-6.715-15-15 0-35.426-28.825-64.25-64.258-64.25-8.285 0-15-6.715-15-15zm158.52 94.258c-8.286 0-15-6.719-15-15 .003-34.332-13.368-66.606-37.641-90.883-24.278-24.273-56.551-37.644-90.883-37.644-8.281 0-15-6.715-15-15 0-8.282 6.719-15 15-15 42.344 0 82.152 16.492 112.094 46.433 29.945 29.942 46.433 69.75 46.43 112.094 0 8.281-6.716 15-15 15zm0 0"/></symbol></svg>